<svg preserveAspectRatio="none" width="100%" height="100%" overflow="visible" style="display: block;" viewBox="0 0 22 21.9986" fill="none" xmlns="http://www.w3.org/2000/svg">
<g id="Vector">
<path d="M16.0785 13.7352C15.847 13.2866 15.574 12.9408 15.2082 12.6365L14.238 14.851L13.3306 13.878L13.9065 12.5722L11.0286 9.70634L8.16212 12.5637L8.76513 13.8509C8.53079 14.1181 8.16355 14.4824 7.83346 14.7895L6.84321 12.6251C6.46311 12.9766 6.19018 13.3066 5.9787 13.7137L4.21967 17.1211L2.32203 15.2238L5.72577 11.8265L5.48714 10.2692L7.59483 8.14196C8.19784 7.53335 8.67654 8.45198 9.08236 8.47055C9.20382 8.47627 9.38244 8.07052 9.2867 7.96909L7.98493 6.61186C7.82346 6.4447 8.00637 5.88181 8.19784 5.60608L5.88724 3.25164L6.4974 2.60445L8.88516 4.97175L9.83541 4.0174C10.7085 4.81888 9.40101 5.07747 10.6128 6.07468C10.7228 6.16611 10.9686 6.48471 11.0657 6.40899L11.5044 6.07039C12.619 5.21177 11.433 4.84603 12.1732 4.0174L13.152 4.99747L15.5483 2.6416L16.1599 3.2745L13.8393 5.63751C14.0665 5.96039 14.2237 6.48471 14.0022 6.71044L12.809 7.92337C12.7219 8.01195 12.789 8.33054 12.8833 8.38483C13.0034 8.45198 13.3249 8.39197 13.4221 8.26768C13.7007 7.91337 14.1994 7.85051 14.5252 8.18053L16.5729 10.2507L16.3757 11.8251L19.7337 15.1853L17.8103 17.0683L16.0827 13.728L16.0785 13.7352ZM6.96609 10.5835L8.40647 9.13059C8.52221 8.99487 7.99922 8.56341 7.88205 8.68342L6.24877 10.3478C6.17446 10.4235 6.39023 10.8078 6.47311 10.7707C6.55599 10.7336 6.88036 10.6707 6.96609 10.5835ZM15.1725 10.615C15.2654 10.7064 15.5955 10.725 15.6869 10.7378C15.7484 10.7464 15.8527 10.385 15.8084 10.3392L14.1494 8.67485C14.0294 8.55484 13.5592 9.02487 13.6793 9.14202L15.1739 10.615H15.1725Z" fill="var(--fill-0, #999999)"/>
<path d="M5.57573 16.5868C5.75006 16.1196 5.93583 15.7525 6.21733 15.2653L11.0071 20.0313L15.8313 15.191L16.4943 16.4968L11.0043 21.9986L5.57573 16.5854V16.5868Z" fill="var(--fill-0, #999999)"/>
<path d="M3.59808 12.648L2.6564 13.668L0 10.995L6.13588 4.8546C6.51884 5.16891 6.81606 5.46464 7.12614 5.82752L1.97337 10.9864L3.59951 12.648H3.59808Z" fill="var(--fill-0, #999999)"/>
<path d="M18.4105 12.6637L20.0238 10.9836L14.9024 5.85324L15.887 4.87889L22 10.9921L19.425 13.5866L18.4105 12.6637Z" fill="var(--fill-0, #999999)"/>
<path d="M11.0129 1.98013L9.06378 3.86311L8.04352 2.94019L11 0L13.9422 2.9359L12.9777 3.91597L11.0129 1.98013Z" fill="var(--fill-0, #999999)"/>
<path d="M11.3372 16.5082C11.2043 16.5482 10.7985 16.5496 10.6699 16.4854L10.6542 14.3209C10.6542 14.1638 10.8342 13.9138 10.95 13.888C11.09 13.8566 11.3487 14.1223 11.3472 14.2966L11.3372 16.5096V16.5082Z" fill="var(--fill-0, #999999)"/>
<path d="M10.1055 16.5125L9.42816 16.5768V14.2809C9.42816 14.1323 9.65679 13.8666 9.77968 13.8809C9.90257 13.8952 10.1012 14.1438 10.1012 14.2695L10.1055 16.5111V16.5125Z" fill="var(--fill-0, #999999)"/>
<path d="M12.5747 16.5639L11.9002 16.5239L11.8959 14.2738C11.8959 14.1452 12.0989 13.8938 12.2217 13.8809C12.3446 13.868 12.5718 14.1323 12.5718 14.2809L12.5747 16.5654V16.5639Z" fill="var(--fill-0, #999999)"/>
</g>
</svg>
