<svg preserveAspectRatio="none" width="100%" height="100%" overflow="visible" style="display: block;" viewBox="0 0 20 22.0005" fill="none" xmlns="http://www.w3.org/2000/svg">
<g id="Vector">
<path d="M18.6752 7.20191L15.0375 10.6435L9.57174 5.5001L12.9462 2.30704C13.7177 1.57724 14.8792 1.05957 15.9857 1.00892L19.9983 0.825279L19.85 4.3492C19.81 5.30063 19.4468 6.47211 18.6769 7.20191H18.6752Z" fill="var(--fill-0, #999999)"/>
<path d="M1.81136 4.08641L1.78637 12.8519L0.00666556 13.5548L0 3.26638C3.91435 0.318694 9.04183 -0.634317 13.8294 0.40893C13.0728 0.809448 12.4829 1.22896 11.8697 1.78462C8.35361 1.41893 4.92418 2.11707 1.81136 4.08641Z" fill="var(--fill-0, #999999)"/>
<path d="M7.2188 17.9478L10.0083 19.895L18.1903 14.2371L18.2236 9.22508L19.9933 7.46945L20 15.0856L10.0083 22.0005L6.52891 19.6037L7.2188 17.9478Z" fill="var(--fill-0, #999999)"/>
<path d="M3.56274 19.3409L0.403266 16.3869C0.194968 16.1922 -0.0149975 15.5859 0.0199967 15.3152C0.0583236 15.0191 0.441593 14.5474 0.811531 14.4112L6.31228 12.3754C6.89718 12.6319 7.49542 13.2002 7.73038 13.7511L5.55907 18.9309C5.45576 19.1763 4.9925 19.5135 4.75254 19.6069C4.48592 19.7098 3.81936 19.5816 3.56274 19.3425V19.3409ZM4.46592 17.7879C4.57924 17.894 5.10748 17.6645 5.16747 17.5172L6.64723 13.8777C6.74054 13.6498 6.12398 13.3743 5.88402 13.463L2.19297 14.8466C1.98467 14.9241 1.93301 15.4307 2.07632 15.5637L4.46759 17.7863L4.46592 17.7879Z" fill="var(--fill-0, #999999)"/>
<path d="M8.12198 13.1464C7.63373 12.977 7.19214 12.529 6.84553 12.0588L9.53341 9.56069L10.7315 10.6403L8.12198 13.1464Z" fill="var(--fill-0, #999999)"/>
<path d="M11.2015 10.6039L9.62506 9.09368L11.2381 7.57868L12.8262 9.05569L11.2015 10.6039Z" fill="var(--fill-0, #999999)"/>
</g>
</svg>
