<svg preserveAspectRatio="none" width="100%" height="100%" overflow="visible" style="display: block;" viewBox="0 0 22 22" fill="none" xmlns="http://www.w3.org/2000/svg">
<path id="Vector" d="M22 11C22 17.0743 17.0758 22 11 22C4.92419 22 0 17.0743 0 11C0 4.92571 4.92419 0 11 0C17.0758 0 22 4.92419 22 11ZM17.6593 8.72119C18.2687 9.05262 18.9483 8.67537 19.2279 8.29506C19.5074 7.91475 19.5379 7.32671 19.2981 6.85476C17.6684 3.66718 14.4411 1.71522 10.9267 1.7366C7.41225 1.75798 4.20328 3.73285 2.6576 6.96779C2.40864 7.48861 2.58886 8.12552 2.94932 8.4539C3.28076 8.75632 3.92683 8.92585 4.3774 8.68148C8.5486 6.42252 13.4422 6.42252 17.6593 8.71966V8.72119ZM13.1887 11C13.1887 9.79034 12.2081 8.80978 10.9985 8.80978C9.78881 8.80978 8.80825 9.79034 8.80825 11C8.80825 12.2097 9.78881 13.1902 10.9985 13.1902C12.2081 13.1902 13.1887 12.2097 13.1887 11ZM8.54707 19.932C9.28784 20.1366 9.94613 19.5226 9.92474 18.8094C9.81783 15.1513 6.89142 12.2081 3.22883 12.0921C2.46973 12.0676 1.88934 12.8512 2.10469 13.5873C3.01347 16.6848 5.43127 19.0751 8.54707 19.9335V19.932ZM13.5293 19.9152C16.6558 19.0049 19.0018 16.6359 19.8968 13.5858C20.1122 12.8512 19.5287 12.0676 18.7712 12.0905C15.1101 12.2051 12.1806 15.1529 12.0768 18.8078C12.0569 19.5287 12.7015 20.1565 13.5293 19.9152Z" fill="var(--fill-0, #999999)"/>
</svg>
