<svg preserveAspectRatio="none" width="100%" height="100%" overflow="visible" style="display: block;" viewBox="0 0 22.0014 22" fill="none" xmlns="http://www.w3.org/2000/svg">
<g id="Vector">
<path d="M10.9993 22L0 10.9965L10.9979 0L22.0014 10.9951L11.0007 22H10.9993ZM11.0021 20.0286L20.0325 10.9909L10.9909 1.96721L1.96886 11.0049L11.0035 20.03L11.0021 20.0286Z" fill="var(--fill-0, #999999)"/>
<path d="M12.3571 15.5964L8.34386 15.6188L7.58597 14.4625L8.30191 14.2766C8.34246 14.1843 8.23479 13.6908 8.08797 13.6698L7.24757 13.5439C7.03922 13.2783 6.90498 12.5135 6.92595 12.1584L7.62232 12.0381C7.77334 12.0116 7.8069 11.5306 7.68944 11.4327C7.57198 11.3349 7.27134 11.3139 6.95392 11.2691C6.90078 10.9783 7.03642 10.2317 7.25876 9.95907L7.94534 9.89476C8.12712 9.87798 8.29492 9.4781 8.35365 9.24601L7.60834 9.06285C7.77334 8.74827 8.10475 8.20438 8.34666 7.97788C8.48649 7.84785 9.05002 7.93454 9.19825 7.97509C8.79832 9.27817 9.18706 10.5491 10.3742 11.1391C11.4384 11.669 12.7179 11.381 13.5051 10.3072C13.624 10.5924 13.7191 10.9629 13.7722 11.2398L12.9374 11.3964C12.9472 11.6956 12.9486 12.0395 13.0856 12.0605L13.7722 12.164C13.7288 12.5457 13.5988 13.179 13.459 13.5537L12.6102 13.6502C12.441 13.6698 12.3739 14.0417 12.3375 14.3507L13.2073 14.3325L12.3585 15.5978L12.3571 15.5964Z" fill="var(--fill-0, #999999)"/>
<path d="M14.0435 8.48681C13.768 7.57521 13.2003 6.28192 12.2438 6.44131C12.0858 6.46787 12.1375 7.00477 12.2984 7.08586C13.3233 7.59758 13.8197 8.88529 13.2674 9.89196C12.7025 10.9238 11.4174 11.3446 10.4512 10.7434C9.37723 10.0751 9.071 8.82656 9.86805 7.57801L8.60675 7.50531L8.65989 6.46368C8.68086 6.05821 8.96053 5.70168 9.39961 5.70728C12.6381 5.75062 13.3205 5.20254 14.3483 7.35011C15.6739 10.1213 15.0279 14.552 14.2378 14.4821C13.4478 14.4122 15.137 12.0913 14.0449 8.48541L14.0435 8.48681ZM10.9294 7.90658C10.2428 8.24633 10.1128 9.04887 10.4693 9.61373C10.7728 10.0961 11.4412 10.3044 11.9991 10.015C12.557 9.72558 12.7864 9.01671 12.5235 8.45466C12.2606 7.8926 11.5894 7.57941 10.9294 7.90518V7.90658Z" fill="var(--fill-0, #999999)"/>
</g>
</svg>
