<svg preserveAspectRatio="none" width="100%" height="100%" overflow="visible" style="display: block;" viewBox="0 0 22.0018 22.0001" fill="none" xmlns="http://www.w3.org/2000/svg">
<g id="Vector">
<path d="M9.939 12.5935L10.133 11.8405C10.1773 11.6664 9.88096 11.4541 9.58157 11.2494L8.73536 13.487L7.22318 11.8741L7.83569 9.42422L5.74154 7.28898L2.16729 7.42949L1.2722 6.66276L3.16014 5.40422L2.36586 5.05751L2.99975 4.54891C3.13875 4.43741 2.89588 4.11819 2.67899 3.84632C2.87908 3.60042 3.30983 3.15596 3.56797 2.92838C3.78792 3.07654 4.07508 3.35757 4.19423 3.26746L4.74258 2.85813L5.14125 3.44921L6.36016 1.55071L7.16972 2.44421L7.0017 5.9556L9.15541 8.10458L11.5932 7.49364L13.1344 8.98434L11.0342 9.84271C11.6436 11.3685 12.8106 9.11722 13.5224 10.556L12.2714 11.2112L16.4826 15.4649L15.195 16.7402L10.967 12.5431L10.2735 13.7955L9.82444 13.3892C9.69766 13.2747 9.87943 12.8287 9.939 12.595V12.5935Z" fill="var(--fill-0, #999999)"/>
<path d="M18.7066 16.1766C20.9169 13.0074 20.8435 8.65749 18.4897 5.47906C16.1756 2.35257 12.1783 0.971844 8.37641 2.07459L7.11015 0.738159C11.6391 -1.03357 16.7515 0.481563 19.6811 4.23885C22.6505 8.04502 22.8017 13.4427 19.953 17.3542L18.7051 16.1766H18.7066Z" fill="var(--fill-0, #999999)"/>
<path d="M15.7601 18.987C16.2474 19.2955 16.6491 19.7186 17.0234 20.1875C13.136 22.7733 8.02204 22.564 4.32711 19.7415C0.63219 16.9189 -0.954841 12.062 0.584839 7.51808L1.95344 8.79495C1.0889 12.427 2.43459 16.1415 5.30622 18.3531C8.30156 20.6594 12.3356 21.0107 15.7601 18.987Z" fill="var(--fill-0, #999999)"/>
<path d="M17.5519 19.0649L15.751 17.3038L17.0539 16.0178L18.7143 17.6826C18.9373 17.9056 18.9159 18.5349 18.7448 18.8083C18.5737 19.0817 17.8528 19.3581 17.5519 19.0633V19.0649Z" fill="var(--fill-0, #999999)"/>
</g>
</svg>
