<svg preserveAspectRatio="none" width="100%" height="100%" overflow="visible" style="display: block;" viewBox="0 0 22 22" fill="none" xmlns="http://www.w3.org/2000/svg">
<g id="Vector">
<path d="M22 11C22 17.0757 17.0757 22 11 22C4.92435 22 0 17.0757 0 11C0 4.92435 4.92435 0 11 0C17.0757 0 22 4.92435 22 11ZM16.9978 7.4789L17.1566 8.37521C17.5551 8.88368 18.3583 8.92338 18.8041 8.65616C19.3279 8.34314 19.6577 7.67893 19.3874 7.08801C17.7796 3.56538 14.2386 1.59411 10.3831 1.79414C7.08495 1.96363 4.29831 3.84786 2.75611 6.76582C2.46904 7.30788 2.50416 7.94461 2.87521 8.36452C3.28443 8.82718 3.90894 8.85772 4.5075 8.65311C5.02207 8.47751 5.14881 8.05608 5.08773 7.49417L11.0443 3.10425L16.9978 7.4789ZM15.9243 13.2308L15.9274 8.01027L11.0428 4.4281L6.26499 7.94156V13.6049C6.26805 16.1564 8.85314 17.9185 11.2153 17.8284C13.6538 17.7353 15.9228 15.8877 15.9243 13.2293V13.2308ZM9.85633 18.7889C6.78873 18.0926 4.87854 15.4586 5.09078 12.391C4.12118 12.1421 2.90117 11.7803 2.31788 12.5239C2.10564 12.7957 2.03998 13.3347 2.15602 13.7103C3.09509 16.7382 5.46641 19.1004 8.54622 19.9234C8.8455 20.0028 9.43642 19.8257 9.62882 19.6577C9.79678 19.5096 9.95711 19.0484 9.85633 18.7889ZM13.5469 19.9081C16.6634 18.9981 19.0164 16.6283 19.8913 13.5912C20.0974 12.8766 19.6119 12.1864 18.8713 12.1223C18.3232 12.075 17.8406 12.1757 17.1841 12.2903C17.0634 12.756 16.9963 13.1194 16.9535 13.5973C16.7183 16.2618 14.7257 18.3232 12.0795 18.8179C12.0566 19.5371 12.6979 20.157 13.5469 19.9081Z" fill="var(--fill-0, #999999)"/>
<path d="M14.8509 12.1009C15.1105 13.7088 14.4738 15.2464 13.2568 16.077C11.9009 17.0039 10.2106 16.981 8.85772 16.0999C7.57662 15.2662 6.9857 13.5927 7.30788 12.0414L11.0443 9.31427L14.8509 12.1009ZM14.0294 13.8309C14.1394 13.4599 14.0966 12.8247 14.0294 12.4323L11.0473 10.2182L7.94614 12.5101C7.78581 14.2447 8.84703 15.6419 10.4366 15.9808C11.933 16.3 13.5561 15.4357 14.0294 13.8309Z" fill="var(--fill-0, #999999)"/>
<path d="M11.0916 8.43476L7.3033 11.1481L7.25291 10.2946L11.0412 7.52471L14.7593 10.2564C14.9486 10.3953 14.9013 10.942 14.8189 11.2077L11.0916 8.43476Z" fill="var(--fill-0, #999999)"/>
<path d="M11.0702 6.63451L7.22848 9.43642L7.23612 8.55081L11.0397 5.74889L14.8463 8.53554L14.9212 9.50972L11.0702 6.63451Z" fill="var(--fill-0, #999999)"/>
</g>
</svg>
