<svg preserveAspectRatio="none" width="100%" height="100%" overflow="visible" style="display: block;" viewBox="0 0 24 14" fill="none" xmlns="http://www.w3.org/2000/svg">
<g id="Vector">
<path d="M9.58659 1.62758C8.33967 2.53316 7.22682 3.32062 7.13296 3.37312C7.01229 3.43874 6.97207 3.67498 6.99888 4.08183L7.03911 4.68555L9.50615 2.92689C10.8737 1.95569 12.0402 1.2076 12.1207 1.2601C12.2011 1.29947 13.314 2.10006 14.5877 3.01876C15.8615 3.93747 16.9341 4.69868 16.9743 4.69868C17.0145 4.69868 17.0279 4.42307 17.0011 4.08183L16.9609 3.46499L14.5475 1.73258C13.2201 0.774498 12.0804 -0.0129626 12 0.000161714C11.933 0.000161714 10.8469 0.735125 9.58659 1.62758Z" fill="var(--fill-0, #999999)"/>
<path d="M9.58659 3.98996C8.33967 4.89554 7.22682 5.683 7.13296 5.7355C7.01229 5.80112 6.97207 6.03736 6.99888 6.44421L7.03911 7.04793L9.50615 5.28927C10.8737 4.31807 12.0402 3.56998 12.1207 3.62248C12.2011 3.66185 13.314 4.46244 14.5877 5.38114C15.8615 6.29985 16.9341 7.06106 16.9743 7.06106C17.0145 7.06106 17.0279 6.78545 17.0011 6.44421L16.9609 5.82737L14.5475 4.09496C13.2201 3.13688 12.0804 2.34942 12 2.36254C11.933 2.36254 10.8469 3.09751 9.58659 3.98996Z" fill="var(--fill-0, #999999)"/>
<path d="M0 3.97684C0 4.00309 0.0670391 4.1737 0.160894 4.35744C0.335196 4.73805 0.254749 4.72493 3.35196 5.09241C4.57207 5.23678 5.79218 5.39427 6.07374 5.43364L6.56983 5.51239V3.91122H3.28492C1.47486 3.91122 0 3.93747 0 3.97684Z" fill="var(--fill-0, #999999)"/>
<path d="M17.4302 5.51239L17.9397 5.43364C18.2078 5.39427 19.4279 5.23678 20.648 5.09241C23.7452 4.72493 23.6648 4.73805 23.8391 4.35744C23.933 4.1737 24 4.00309 24 3.97684C24 3.93747 22.5251 3.91122 20.7151 3.91122H17.4302V5.51239Z" fill="var(--fill-0, #999999)"/>
<path d="M9.41229 6.31297L6.95866 8.04538L7.0257 9.2922C7.09274 10.6965 7.30726 11.4052 7.93743 12.2583C8.83575 13.492 10.2838 14.0826 12.1877 13.9907C14.2123 13.8988 15.848 12.9014 16.5989 11.2871C16.867 10.7096 16.9475 10.3028 16.9877 9.30532L17.0413 8.04538L14.6011 6.33922C13.2603 5.39427 12.0939 4.61993 12.0134 4.60681C11.933 4.59368 10.7665 5.36802 9.41229 6.31297ZM14.1855 7.32355L16.0894 8.68848V9.30532C16.0894 11.4446 14.333 13.1245 12.067 13.1376C10.029 13.1639 8.62123 12.1008 8.09832 10.1453C7.7095 8.7541 7.66927 8.83284 9.9486 7.20543C11.1017 6.37859 12.0402 5.80112 12.1341 5.85362C12.2145 5.90612 13.1397 6.56233 14.1855 7.32355Z" fill="var(--fill-0, #999999)"/>
<path d="M0.536313 5.1449C0.536313 5.40739 0.871508 6.01111 1.04581 6.06361C1.17989 6.10298 2.35978 6.36547 3.68715 6.66733C5.01453 6.96919 6.20782 7.2448 6.3419 7.27105C6.54302 7.33667 6.56983 7.2448 6.56983 6.54921C6.56983 6.10298 6.5162 5.74862 6.44916 5.74862C6.23464 5.74862 1.27374 5.22365 0.911732 5.15803C0.697207 5.13178 0.536313 5.11866 0.536313 5.1449Z" fill="var(--fill-0, #999999)"/>
<path d="M20.581 5.43364C19.1061 5.59113 17.7922 5.7355 17.6715 5.7355C17.4704 5.74862 17.4302 5.87987 17.4302 6.53609C17.4302 7.2973 17.4436 7.32355 17.7385 7.25792C17.8994 7.21855 19.0927 6.95606 20.3799 6.66733C23.3564 5.98486 23.1553 6.06361 23.3162 5.59113C23.4905 5.10553 23.4905 5.09241 23.3698 5.10553C23.3028 5.11866 22.0559 5.26302 20.581 5.43364Z" fill="var(--fill-0, #999999)"/>
<path d="M1.2067 6.90357C1.2067 7.38917 1.59553 7.59916 3.95531 8.37349C5.28268 8.8066 6.40894 9.16095 6.47598 9.16095C6.52961 9.16095 6.56983 8.81972 6.54302 8.41287L6.50279 7.66478L4.15642 7.23168C2.86927 6.99544 1.67598 6.77232 1.51508 6.73295C1.27374 6.68045 1.2067 6.71983 1.2067 6.90357Z" fill="var(--fill-0, #999999)"/>
<path d="M20.0447 7.17918L17.4972 7.66478L17.457 8.41287C17.4302 8.81972 17.4704 9.16095 17.524 9.16095C17.8994 9.16095 22.4849 7.54666 22.6324 7.36292C22.8067 7.12668 22.8603 6.6542 22.6994 6.68045C22.6324 6.69358 21.4525 6.91669 20.0447 7.17918Z" fill="var(--fill-0, #999999)"/>
</g>
</svg>
