<svg preserveAspectRatio="none" width="100%" height="100%" overflow="visible" style="display: block;" viewBox="0 0 22 22.0014" fill="none" xmlns="http://www.w3.org/2000/svg">
<g id="Vector">
<path d="M11.0064 22L0 11.0007L11.0007 0L22 10.995L11.005 22.0014L11.0064 22ZM11.0079 20.0306L20.0387 10.9979L11.0021 1.96508L1.96416 11.0007L11.0079 20.0321V20.0306Z" fill="var(--fill-0, #999999)"/>
<path d="M9.67223 12.0918L8.51659 13.0743L5.20823 13.0786L6.23959 11.6848C6.40816 11.4563 6.3753 10.6951 6.23531 10.4438C6.01532 10.0467 5.47822 9.40123 5.20538 9.04278L8.54516 9.03421L9.61366 10.0325L13.8777 10.0539L13.9391 12.1032L9.67223 12.0889V12.0918Z" fill="var(--fill-0, #999999)"/>
<path d="M18.2217 11.0507L17.2132 12.0718L14.5905 12.1132L14.5705 10.061L17.1575 10.0396L18.2217 11.0507Z" fill="var(--fill-0, #999999)"/>
</g>
</svg>
