<svg preserveAspectRatio="none" width="100%" height="100%" overflow="visible" style="display: block;" viewBox="0 0 21.9997 22.0007" fill="none" xmlns="http://www.w3.org/2000/svg">
<g id="Vector">
<path d="M9.43523 14.4593L10.5498 14.3646C10.5498 14.2148 10.5498 13.9061 10.5498 13.7533L9.36184 13.6937V12.6071L10.7226 12.3718L9.45051 12.0876L9.43217 11.1385L10.53 11.0071C10.53 10.8497 10.5208 10.6615 10.4978 10.3332C10.3434 10.3393 9.86181 10.3332 9.64928 10.3637L5.90642 14.0543C5.71071 14.0742 5.28108 14.0849 5.15723 14.2102L3.76589 15.6253L4.66186 16.5759L1.46483 16.5713L4.68173 13.3957L4.69396 12.8058L7.79161 9.71578C7.05007 9.3643 6.44461 9.65924 5.91865 10.217C3.16196 10.755 4.07474 9.79525 3.22465 9.79983L0.0689037 9.81664C0.214154 8.71175 0.463372 7.71842 0.88689 6.69147L5.23674 6.74037C5.53641 6.74343 5.9049 7.03379 6.26879 7.02921L9.78841 6.98336C9.86181 6.79998 9.93826 6.49434 10.0437 6.18411L11.0146 7.29511L14.0924 7.31039C14.2514 7.79483 18.2282 7.59617 18.7786 7.56713L21.442 7.42195L21.7585 8.67508C20.0293 8.67508 14.0924 8.17536 13.542 8.9364L17.5249 12.9235L17.2909 13.2689L20.4543 16.472L17.453 16.501L18.2771 15.5627L16.6396 13.9092L16.2574 14.1353L12.5268 10.4035C12.3846 10.3913 11.9259 10.3913 11.773 10.3913C11.773 10.6556 11.773 10.6205 11.773 11.0025C12.091 11.0407 12.8356 11.3005 12.8356 11.6077C12.8356 12.41 11.2444 12.3859 12.0191 12.5796C12.7939 12.7733 12.7851 12.8669 12.8448 13.1084C12.8356 13.5241 11.7669 13.6769 11.773 13.7533L11.7684 14.3646L12.9166 14.4486L12.9075 16.5331L9.42758 16.5499L9.43523 14.4578V14.4593Z" fill="var(--fill-0, #999999)"/>
<path d="M19.0997 6.4057C17.4912 3.61367 14.6642 1.88986 11.536 1.70953C8.36802 1.52768 5.33459 2.94585 3.44023 5.57283C2.77361 5.59881 2.18344 5.59269 1.46942 5.54226C3.46163 1.9464 7.34821 -0.138064 11.38 0.00711478C15.4333 0.152294 19.1364 2.46905 20.9528 6.31706L19.0997 6.4057Z" fill="var(--fill-0, #999999)"/>
<path d="M17.4637 17.6747L19.8076 17.6059C17.8062 20.2833 14.6092 21.949 11.2073 21.9995C7.72128 22.0514 4.37136 20.5049 2.29811 17.6899L4.50896 17.6701C8.11574 21.1498 13.7759 21.2537 17.4652 17.6762L17.4637 17.6747Z" fill="var(--fill-0, #999999)"/>
<path d="M21.0491 15.4634L19.7587 14.1995C20.2816 12.6866 20.3871 11.3326 20.2663 9.78914L21.9221 9.7815C22.1377 11.7055 21.9221 13.4996 21.0476 15.4634H21.0491Z" fill="var(--fill-0, #999999)"/>
<path d="M2.23542 14.2851L0.996974 15.5123C0.264609 14.0559 -0.00601466 12.5399 0.000101118 10.9078L1.62384 10.9017C1.7324 12.1044 1.88529 13.0457 2.23542 14.2851Z" fill="var(--fill-0, #999999)"/>
</g>
</svg>
