<svg preserveAspectRatio="none" width="100%" height="100%" overflow="visible" style="display: block;" viewBox="0 0 22 22" fill="none" xmlns="http://www.w3.org/2000/svg">
<g id="Vector">
<path d="M11.0007 0L22 10.9993L10.9993 22L0 11.0007L11.0007 0ZM10.9993 1.96835L1.96696 11.0007L10.9993 20.033L20.0316 11.0007L10.9993 1.96835Z" fill="var(--fill-0, #999999)"/>
<path d="M13.5926 16.4277L8.4368 16.3955L9.77747 14.1643C8.83243 13.682 8.33056 13.1801 7.83008 12.2169L5.57934 13.5898L5.58493 8.40605L7.83008 9.78166C8.32357 8.82964 8.81845 8.33335 9.78446 7.83148L8.40605 5.57095L13.5534 5.62127L12.2225 7.83987C13.1634 8.31798 13.6806 8.83383 14.1657 9.78446L16.4109 8.41863L16.4179 13.6037L14.1685 12.2197C13.6722 13.176 13.1801 13.6694 12.2127 14.1727L13.5898 16.4277H13.5926ZM13.2962 11.0007C13.2962 9.73273 12.2687 8.70382 10.9993 8.70382C9.72994 8.70382 8.70242 9.73133 8.70242 11.0007C8.70242 12.2701 9.72994 13.2976 10.9993 13.2976C12.2687 13.2976 13.2962 12.2701 13.2962 11.0007Z" fill="var(--fill-0, #999999)"/>
<path d="M12.7901 11.0007C12.7901 11.9891 11.9891 12.7901 11.0007 12.7901C10.0123 12.7901 9.21129 11.9891 9.21129 11.0007C9.21129 10.0123 10.0123 9.21129 11.0007 9.21129C11.9891 9.21129 12.7901 10.0123 12.7901 11.0007ZM12.2072 11.0007C12.2072 10.3339 11.6675 9.79424 11.0007 9.79424C10.3339 9.79424 9.79424 10.3339 9.79424 11.0007C9.79424 11.6675 10.3339 12.2072 11.0007 12.2072C11.6675 12.2072 12.2072 11.6675 12.2072 11.0007Z" fill="var(--fill-0, #999999)"/>
</g>
</svg>
