<svg preserveAspectRatio="none" width="100%" height="100%" overflow="visible" style="display: block;" viewBox="0 0 20 22" fill="none" xmlns="http://www.w3.org/2000/svg">
<g id="Vector">
<path d="M10.0082 22L0 15.1001V3.2587C5.88332 -1.10152 14.166 -1.07092 20 3.2587V15.0695L10.0082 21.9847V22ZM10.0082 19.8887L18.1923 14.2128V4.10015C13.2786 0.902652 6.82005 0.856755 1.79129 4.10015V14.2128C1.77486 14.2128 10.0082 19.8887 10.0082 19.8887Z" fill="var(--fill-0, #999999)"/>
<path d="M10.0082 17.8081L3.58258 13.3867V5.01809C7.52671 2.81503 12.3911 2.79973 16.4174 5.01809V13.3714L10.0082 17.8234V17.8081ZM11.4544 14.1669V11.2142L14.6261 11.1836V8.46037C14.6097 8.46037 11.4873 8.46037 11.4873 8.46037L11.4544 5.50766H8.57847C8.57847 5.49236 8.5456 8.44507 8.5456 8.44507H5.3903C5.3903 8.46037 5.3903 11.1836 5.3903 11.1836L8.52917 11.2142L8.56204 14.1822L11.438 14.1516L11.4544 14.1669Z" fill="var(--fill-0, #999999)"/>
</g>
</svg>
