<svg preserveAspectRatio="none" width="100%" height="100%" overflow="visible" style="display: block;" viewBox="0 0 24 10" fill="none" xmlns="http://www.w3.org/2000/svg">
<g id="Vector">
<path d="M12.0045 6.99813e-05C13.6172 -0.00599108 15.0732 0.379928 15.9744 1.83298C16.3311 1.75617 16.4921 1.42675 16.8055 1.31964L23.7842 1.40056C24.374 1.96037 23.5945 2.79511 23.347 3.23366C22.9057 4.01374 22.6787 4.60176 22.0353 5.23432C21.7074 5.55768 21.926 6.29736 21.2805 6.53988C19.5709 7.18052 17.7726 7.56456 16.1146 8.34061C15.5268 8.61548 14.4628 9.4077 14.238 8.7085L14.0358 8.07595C14.0317 8.06384 12.5 7.5 11.5 8C12 8 12.2646 8.16086 12.8149 8.38502C13.2191 8.55074 13.2872 9.55315 12.8933 9.74919C11.6848 10.3534 10.528 9.74925 9.55256 9.16519L7.76661 8.09805C6.29003 7.2169 4.48554 6.97638 2.86872 6.41455C2.12218 6.15587 2.30975 5.47087 1.94473 5.02828C1.45598 4.43614 1.06839 3.88032 0.73637 3.15077C0.511584 2.6536 -0.428841 1.79471 0.231075 1.21267C2.43356 0.988342 4.75153 1.18029 7.03857 1.12168C7.52733 1.10956 7.70478 1.58644 8.11723 1.9583C9.05144 0.472934 10.3919 0.00613285 12.0045 6.99813e-05ZM12.4399 0.60025C10.6313 0.4992 9.17731 1.19238 8.44933 2.90012C7.74819 2.989 7.45938 2.17259 7.05931 1.82903C5.0177 1.65524 2.95545 1.75623 0.903527 1.78857C0.69319 1.85527 0.983963 2.42525 1.31598 2.47579L8.22055 3.53069C8.12981 3.79544 8.06776 4.38958 7.83266 4.40777L1.60881 3.24372C1.66861 3.62365 1.94907 4.1289 2.38417 4.22797L7.39765 5.36774C7.75853 5.45061 7.93506 5.48432 8.24645 5.54294L8.24907 5.55774C8.24177 5.64409 8.26298 6.13418 8.18107 6.31765L2.73459 5.08492C2.75113 5.66892 3.20288 5.82242 3.69161 5.97601L8.44027 7.47557C8.44539 7.47751 8.45557 7.48169 8.45557 7.48169L9.07397 7.98293C9.07397 7.98293 11.2447 9.48013 12.1677 9.39769C12.1677 9.39769 12.3809 9.39024 12.477 9.29664C12.5187 9.25601 12.5448 9.1773 12.5578 9.10974C12.5731 9.02963 12.5242 8.97291 12.448 8.9402C11.7704 8.64933 10.7397 8.1443 10 8C9.91253 7.98293 10.0094 7.63439 10.0703 7.5C10.1379 7.35086 10.2422 7.18052 10.2422 7.18052V7.17913L12.0233 7.18052L14.4359 7.27559C14.4359 7.27559 14.5 8 14.6259 8.16693C15.0837 8.43771 15.3189 7.8698 15.688 7.71418C17.2615 7.04929 18.8866 6.67328 20.5096 6.10943C20.9096 5.97201 21.2746 5.77802 21.2664 5.2809L15.9786 6.48738C15.2323 4.77973 22.9428 5.196 22.3016 3.46003L16.7767 4.49264C16.5293 4.53908 16.3189 4.38562 16.2179 4.29468C16.0921 4.18148 15.9933 3.68627 16.2799 3.6418L22.8419 2.6173C23.1079 2.57485 23.2915 1.97453 23.1079 1.97251C21.0436 1.94826 19.004 1.85942 16.9542 2.011C16.6222 2.28385 16.4365 2.90825 15.8612 3.05781C15.2281 1.58655 14.0175 0.689196 12.4399 0.60025Z" fill="var(--fill-0, #999999)"/>
<path d="M9.19432 3.15077C11.1885 2.82337 13.1044 2.82337 15.0966 3.15077C15.1832 4.36535 15.3728 5.60218 14.5252 6.16805V6.17002C12.4135 6.44687 12.8692 5.42433 12.1453 5.41827C11.4216 5.41226 11.8854 6.45295 9.76547 6.17002C8.91798 5.70921 9.11389 4.28854 9.19432 3.15077ZM14.4799 3.67615C12.8713 3.48213 11.4194 3.47612 9.80676 3.67417C9.67273 4.1794 9.64607 4.76145 9.86879 5.30103C10.0008 5.62232 10.3988 5.6041 10.6689 5.57379C10.8751 5.5515 10.9618 5.31515 11.203 5.14137C12.4816 4.22589 13.455 5.64248 13.8076 5.60004L13.8056 5.59806C13.9954 5.57584 14.319 5.57379 14.4221 5.29294C14.6221 4.75132 14.616 4.18543 14.4799 3.67615Z" fill="var(--fill-0, #999999)"/>
</g>
</svg>
