<svg preserveAspectRatio="none" width="100%" height="100%" overflow="visible" style="display: block;" viewBox="0 0 22 22" fill="none" xmlns="http://www.w3.org/2000/svg">
<g id="Vector">
<path d="M5.46405 5.48197L0 10.9639L4.08366 15.061L4.60131 14.5705L5.10458 14.08L3.56601 12.522L2.01307 10.9639L6.51373 6.46295L11 1.94754L12.6967 3.64984L14.3935 5.3377L15.3712 4.32787L13.2288 2.16393C12.0497 0.966557 11.0431 0 11 0C10.9569 0 8.46928 2.46689 5.46405 5.48197Z" fill="var(--fill-0, #999999)"/>
<path d="M14.5373 6.4918L14.0771 6.04459C13.502 5.48197 13.2431 5.59738 13.3582 6.33311C13.4301 6.85246 13.4013 6.91016 12.1503 8.15082C10.9281 9.37705 10.8562 9.42033 10.5974 9.18951C10.0797 8.71344 9.6915 8.88656 8.51242 10.0695L7.39085 11.1948L7.52026 11.9161L7.64967 12.6229L5.69412 14.5993L3.73856 16.5902L4.60131 17.4557C5.07582 17.9318 5.50719 18.3213 5.55033 18.3213C5.60784 18.3213 6.08235 17.5279 6.6 16.5469C7.17516 15.4505 7.76471 14.5561 8.16732 14.1666L8.8 13.5462L9.20261 14.5705C9.43268 15.1331 9.66274 15.6236 9.70588 15.6525C9.7634 15.6813 10.0078 15.4938 10.2667 15.2341L10.7412 14.7436L10.1085 13.5318L10.583 13.0413C10.8418 12.7672 11.1869 12.5508 11.3451 12.5508C11.5033 12.5508 11.9922 12.9115 12.4379 13.3443L13.2431 14.1377L14.5085 12.8393L13.4013 11.7141C12.783 11.0938 12.3373 10.5456 12.3804 10.4879C12.4379 10.4302 12.6536 10.3869 12.8549 10.3869C13.4013 10.3869 15.4575 8.30951 15.4575 7.76131C15.4575 7.54492 15.3856 7.32852 15.2993 7.27082C15.1987 7.21311 15.6301 6.67934 16.3778 5.92918L17.6288 4.6741L17.2837 4.35672L16.9529 4.03934L14.5373 6.4918ZM9.63399 10.6898C8.75686 11.5698 8.44052 11.7718 8.22484 11.5554C8.1098 11.44 8.31111 11.137 8.98693 10.459C9.80654 9.62229 9.93595 9.55016 10.1229 9.73771C10.3242 9.92525 10.2667 10.0407 9.63399 10.6898ZM10.1804 12.7095C9.92157 12.9836 9.66275 13.1134 9.56209 13.0557C9.44706 12.9836 9.53333 12.7961 9.86405 12.4643C10.1804 12.1325 10.3817 12.017 10.4824 12.118C10.583 12.219 10.4824 12.4066 10.1804 12.7095Z" fill="var(--fill-0, #999999)"/>
<path d="M16.6797 6.78033L16.2627 7.21311L18.1176 9.08852L19.9869 10.9639L15.4863 15.4649L11 19.9803L9.28889 18.2636L7.57778 16.5613L7.20392 17.1816L6.83007 17.8164L11 22L22 10.9639L19.6993 8.65574C18.434 7.38623 17.3268 6.34754 17.2405 6.34754C17.1686 6.34754 16.9098 6.54951 16.6797 6.78033Z" fill="var(--fill-0, #999999)"/>
</g>
</svg>
