<svg preserveAspectRatio="none" width="100%" height="100%" overflow="visible" style="display: block;" viewBox="0 0 20 20" fill="none" xmlns="http://www.w3.org/2000/svg">
<g id="Vector">
<path d="M7.59932 0.241758C5.68212 0.732553 3.84828 1.86839 2.4729 3.41089L1.95887 3.98582L3.04251 5.05155L3.93164 4.1541C5.68212 2.38723 7.57153 1.58794 10.0028 1.58794C12.434 1.58794 14.3512 2.38723 16.0739 4.14007C16.8658 4.95339 17.8521 6.58003 18.0883 7.4915C18.1717 7.8 18.1856 7.8 18.8246 7.61771C19.1859 7.50553 19.5193 7.37932 19.561 7.32323C19.7138 7.16898 19.1581 5.80878 18.5329 4.78512C17.2409 2.66769 15.282 1.13921 12.8508 0.35394C11.5726 -0.0667417 9.00249 -0.122833 7.59932 0.241758Z" fill="var(--fill-0, #999999)"/>
<path d="M9.18309 5.65453L8.43288 8.38896L7.46039 7.43542L6.50179 6.48187L6.59904 7.91219C6.65461 8.71148 6.65461 9.35653 6.59904 9.35653C6.54347 9.35653 5.68212 8.71148 4.68185 7.91219C3.66768 7.11289 2.76465 6.41176 2.65351 6.35567C2.55626 6.28555 2.69519 6.63612 2.95915 7.12692C3.237 7.61771 3.88996 8.80964 4.43178 9.77721C4.9597 10.7448 5.37648 11.5441 5.3487 11.5721C5.32091 11.6002 4.72353 11.5581 4.015 11.474C3.30647 11.3898 2.70908 11.3478 2.6813 11.3618C2.6674 11.3898 3.98721 12.75 5.62655 14.4047C7.26589 16.0594 8.62738 17.3775 8.66906 17.3495C8.69685 17.3074 8.47456 16.6203 8.18281 15.821C7.87717 15.0217 7.65489 14.3486 7.66878 14.3206C7.69657 14.3065 8.05778 14.5029 8.47456 14.7553L9.23866 15.232L9.33591 14.8815C9.37759 14.6992 9.53041 13.8859 9.66934 13.0725C9.80826 12.2592 9.96108 11.6002 10.0028 11.6002C10.0444 11.6002 10.225 12.3013 10.3918 13.1567C10.5585 14.0261 10.7252 14.7553 10.753 14.7973C10.7946 14.8254 11.1281 14.6431 11.4893 14.3767C11.8505 14.1102 12.2256 13.8438 12.3228 13.7877C12.4062 13.7456 12.2117 14.4888 11.8644 15.4564C11.531 16.424 11.2531 17.2794 11.2531 17.3355C11.2531 17.4617 19.7693 8.85171 19.8388 8.65539C19.8666 8.58528 18.4356 9.03401 16.6574 9.651L13.4482 10.7588L13.5037 9.2163C13.5315 8.37494 13.5176 7.6738 13.4759 7.6738C13.4343 7.6738 12.9897 8.02437 12.5035 8.44505C11.9061 8.93585 11.5726 9.14619 11.5171 9.03401C11.4754 8.93585 11.1281 7.51955 10.753 5.87889C10.3918 4.25226 10.0444 2.90608 10.0028 2.90608C9.96108 2.90608 9.58598 4.14008 9.18309 5.65453Z" fill="var(--fill-0, #999999)"/>
<path d="M0.708529 6.2575C0.263962 7.32322 0 8.68343 0 10.0296C0 13.8438 2.12559 17.2794 5.58488 19.0322C6.57126 19.523 8.66906 20.14 8.83577 19.9717C9.00249 19.8034 7.12697 18.0085 6.46012 17.7C4.30674 16.7325 2.59794 14.6992 1.86163 12.2172C1.56988 11.2776 1.5282 8.78159 1.76438 7.9262C1.9033 7.46345 1.87552 7.3092 1.47263 6.46784L1.02806 5.51429L0.708529 6.2575Z" fill="var(--fill-0, #999999)"/>
<path d="M19.0191 11.4179C18.3384 12.119 18.0189 12.5817 17.7966 13.1987C17.1575 14.9656 15.6154 16.6483 13.7816 17.5879C13.0314 17.9665 12.5173 18.3731 11.92 19.0322C10.9475 20.0979 11.0169 20.168 12.6007 19.7333C16.2267 18.7237 18.9914 15.821 19.7971 12.133C20.1722 10.3802 20.0889 10.3101 19.0191 11.4179Z" fill="var(--fill-0, #999999)"/>
</g>
</svg>
