<svg preserveAspectRatio="none" width="100%" height="100%" overflow="visible" style="display: block;" viewBox="0 0 22 22.0014" fill="none" xmlns="http://www.w3.org/2000/svg">
<g id="Vector">
<path d="M11.0064 22L0 11.0007L11.0007 0L22 10.995L11.005 22.0014L11.0064 22ZM11.0079 20.0306L20.0387 10.9979L11.0021 1.96508L1.96416 11.0007L11.0079 20.0321V20.0306Z" fill="var(--fill-0, #999999)"/>
<path d="M11.8249 14.5738L11.8192 13.1272L12.2064 12.6016C12.3192 12.4488 12.0464 11.9418 11.8778 12.0204C11.6192 12.1418 11.2493 12.3417 11.0579 12.386C10.8407 12.436 10.3779 12.1289 10.1393 12.0261C9.96078 11.949 9.68651 12.4488 9.79651 12.6002L10.1822 13.1272L10.1879 14.5696L6.79813 14.5638C6.61814 13.8127 6.84241 13.2957 6.99097 12.6816C7.34524 11.2092 7.49809 9.66829 8.01091 8.23875C8.19804 7.71749 8.41802 7.40045 8.33946 6.65355L10.275 6.6307L10.3622 8.20019C10.6122 8.39156 11.3835 8.38442 11.6435 8.20305L11.7278 6.6307L13.6605 6.65355C13.5963 7.3976 13.792 7.71607 13.9848 8.2359C14.5305 9.70256 14.649 11.2892 15.039 12.7744C15.189 13.3471 15.3947 13.9869 15.1704 14.5653L11.8235 14.5753L11.8249 14.5738ZM12.0121 9.56261C10.9507 9.51691 10.695 9.51834 9.93935 9.54119L11.0079 10.975L12.0106 9.56118L12.0121 9.56261Z" fill="var(--fill-0, #999999)"/>
</g>
</svg>
