<svg preserveAspectRatio="none" width="100%" height="100%" overflow="visible" style="display: block;" viewBox="0 0 22 22" fill="none" xmlns="http://www.w3.org/2000/svg">
<g id="Vector">
<path d="M11.8621 21.9571L10.1785 22L10.1446 17.5621L8.67345 17.492L8.68701 15.8637L10.1537 15.7778L10.1266 13.9688C9.06893 13.5126 8.4904 12.9389 8.03842 11.8797L6.22825 11.8503L6.14237 13.3206L4.51299 13.3342L4.44068 11.8526L0.0384181 11.8345L0 10.179L4.4452 10.1429L4.51751 8.67262L6.14011 8.67714L6.23277 10.1542L8.03842 10.1226C8.4904 9.06108 9.06893 8.48517 10.1266 8.03121L10.1537 6.22667L8.68701 6.13633L8.67119 4.51247L10.1469 4.43568L10.165 0.040653L11.835 0L11.8689 4.4402L13.3401 4.51247L13.3266 6.13859L11.8599 6.22667L11.887 8.03347C12.9446 8.48968 13.5232 9.06334 13.9751 10.1271L15.783 10.1542L15.8712 8.68165L17.5006 8.6681L17.5751 10.1497L21.9661 10.1723C22.0113 10.6036 22.0113 11.4009 21.9661 11.8323L17.5729 11.8571L17.4938 13.3251H15.8734L15.783 11.8481L13.9751 11.8774C13.5232 12.9389 12.9446 13.5126 11.887 13.9688L11.8599 15.7756L13.3266 15.8637L13.3424 17.4966L11.8599 17.5553V21.9571H11.8621Z" fill="var(--fill-0, #999999)"/>
<path d="M21.9548 9.01365L20.1672 9.04075C19.3921 5.51299 16.5017 2.61308 12.9808 1.861L12.965 0.0835644C16.2102 0.785956 17.9842 2.10266 19.9955 4.42439C20.8904 5.90596 21.4463 6.98778 21.9571 9.01591L21.9548 9.01365Z" fill="var(--fill-0, #999999)"/>
<path d="M8.99661 20.0825L9.06667 21.9164C4.4452 21.0447 0.967232 17.5462 0.0858757 12.957H1.81695C2.28249 14.6102 2.96949 16.076 4.17853 17.3565C5.5548 18.6958 6.77514 19.6647 8.99661 20.0825Z" fill="var(--fill-0, #999999)"/>
<path d="M21.9299 12.9525C21.0463 17.5666 17.5661 21.0266 12.9672 21.921L12.9605 20.1774C16.4203 19.3576 19.3198 16.67 20.165 12.9728L21.9299 12.9525Z" fill="var(--fill-0, #999999)"/>
<path d="M9.03503 1.84519C5.89379 2.53629 3.1887 5.00257 2.21017 7.85053L1.79209 9.0656L0.081356 9.04076C0.99209 4.43117 4.4226 0.984704 9.05537 0.0880814L9.03503 1.84519Z" fill="var(--fill-0, #999999)"/>
</g>
</svg>
