<svg preserveAspectRatio="none" width="100%" height="100%" overflow="visible" style="display: block;" viewBox="0 0 22 22" fill="none" xmlns="http://www.w3.org/2000/svg">
<path id="Vector" d="M9.30381 0.702578C10.2406 -0.234193 11.7594 -0.234193 12.6962 0.702578L21.2974 9.30398C22.2342 10.2407 22.2342 11.7596 21.2974 12.6964L12.6962 21.2978L12.5136 21.4622C11.6343 22.1793 10.3657 22.1793 9.48643 21.4622L9.30381 21.2978L0.702566 12.6964C-0.234189 11.7596 -0.234189 10.2407 0.702566 9.30398L9.30381 0.702578ZM11.9185 1.48032C11.4113 0.973137 10.5887 0.973136 10.0815 1.48032L1.4803 10.0817C0.97312 10.5889 0.973118 11.4115 1.4803 11.9187L10.0815 20.5201C10.5887 21.0273 11.4113 21.0273 11.9185 20.5201L20.5197 11.9187C21.0269 11.4115 21.0269 10.5889 20.5197 10.0817L11.9185 1.48032Z" fill="var(--fill-0, #999999)"/>
</svg>
