<svg preserveAspectRatio="none" width="100%" height="100%" overflow="visible" style="display: block;" viewBox="0 0 16 12" fill="none" xmlns="http://www.w3.org/2000/svg">
<path id="Vector" d="M13.4822 0.519459C13.7201 0.232067 14.0609 0.0487003 14.4321 0.00839239C14.8034 -0.0319156 15.1757 0.0740185 15.4699 0.303645C15.6144 0.415337 15.735 0.554808 15.8245 0.713813C15.9141 0.872818 15.9708 1.04813 15.9913 1.22939C16.0119 1.41065 15.9958 1.59418 15.9441 1.76913C15.8923 1.94408 15.806 2.1069 15.6901 2.24797L8.16354 11.48C8.03757 11.6326 7.88127 11.7574 7.70452 11.8465C7.52776 11.9356 7.3344 11.9872 7.13666 11.9979C6.93892 12.0086 6.7411 11.9782 6.55573 11.9087C6.37035 11.8392 6.20144 11.732 6.05969 11.5939L0.414747 6.0587L0.316661 5.95479C-0.135735 5.41126 -0.103708 4.60994 0.414747 4.10238C0.933201 3.59482 1.75192 3.56284 2.3064 4.00646L2.4125 4.10238L6.95648 8.53857L13.5022 0.525454L13.4822 0.519459Z" fill="var(--fill-0, #999999)"/>
</svg>
