<svg preserveAspectRatio="none" width="100%" height="100%" overflow="visible" style="display: block;" viewBox="0 0 22 22" fill="none" xmlns="http://www.w3.org/2000/svg">
<g id="Vector">
<path d="M10.999 8.04117e-06C12.4441 -0.00174125 13.8758 0.281932 15.2109 0.834969C16.5452 1.3877 17.7572 2.1985 18.7774 3.22071L19.1514 3.61231C19.9997 4.54642 20.6811 5.62179 21.165 6.79005C21.7177 8.12442 22.0015 9.55475 22 10.999L21.9873 11.54C21.9266 12.8004 21.649 14.0427 21.165 15.2109C20.6123 16.5452 19.8005 17.7562 18.7783 18.7764C17.7578 19.7995 16.546 20.612 15.2109 21.165C13.8758 21.7181 12.4441 22.0018 10.999 22C9.55475 22.0015 8.12442 21.7177 6.79005 21.165C5.45487 20.612 4.24133 19.8005 3.22071 18.7774C2.19873 17.7573 1.38761 16.545 0.834969 15.2109C0.281932 13.8758 -0.00174125 12.4441 8.04117e-06 10.999C-0.00148111 9.55475 0.282308 8.12442 0.834969 6.79005C1.38804 5.45487 2.19947 4.24133 3.22266 3.22071C4.2429 2.1984 5.45568 1.3877 6.79005 0.834969C8.12442 0.282308 9.55475 -0.00148124 10.999 8.04117e-06ZM10.999 2.00001C9.81732 1.99855 8.64645 2.23039 7.5547 2.68263C6.46303 3.13484 5.47122 3.7982 4.63673 4.63477L4.63477 4.63673C3.7982 5.47122 3.13484 6.46303 2.68263 7.5547C2.23039 8.64645 1.99855 9.81732 2.00001 10.999V11.001C1.99855 12.1827 2.23039 13.3536 2.68263 14.4453C3.07838 15.4007 3.63632 16.2791 4.33009 17.043L4.63477 17.3633L4.63673 17.3652C5.47122 18.2018 6.46303 18.8652 7.5547 19.3174C8.64645 19.7696 9.81732 20.0015 10.999 20H11.001C12.1827 20.0015 13.3536 19.7696 14.4453 19.3174C15.537 18.8652 16.5288 18.2018 17.3633 17.3652L17.3652 17.3633C18.2018 16.5288 18.8652 15.537 19.3174 14.4453C19.7696 13.3536 20.0015 12.1827 20 11.001V10.999C20.0015 9.81732 19.7696 8.64645 19.3174 7.5547C18.8652 6.46303 18.2018 5.47122 17.3652 4.63673L17.3633 4.63477C16.5288 3.7982 15.537 3.13484 14.4453 2.68263C13.3536 2.23039 12.1827 1.99855 11.001 2.00001H10.999Z" fill="var(--fill-0, #999999)"/>
<path d="M15.293 7.29298C15.6835 6.90246 16.3165 6.90246 16.707 7.29298C17.0976 7.68351 17.0976 8.31652 16.707 8.70705L10.707 14.707C10.3165 15.0976 9.68351 15.0976 9.29298 14.707L6.29298 11.707C5.90246 11.3165 5.90246 10.6835 6.29298 10.293C6.68351 9.90246 7.31652 9.90246 7.70705 10.293L10 12.586L15.293 7.29298Z" fill="var(--fill-0, #999999)"/>
</g>
</svg>
