<svg preserveAspectRatio="none" width="100%" height="100%" overflow="visible" style="display: block;" viewBox="0 0 14 14" fill="none" xmlns="http://www.w3.org/2000/svg">
<path id="Vector" d="M11.4173 0.467978C11.5547 0.322714 11.7198 0.206468 11.9029 0.126113C12.086 0.0457586 12.2833 0.00292504 12.4833 0.000144645C12.6832 -0.00263575 12.8817 0.0346934 13.0669 0.109926C13.2522 0.185158 13.4205 0.296766 13.5619 0.438154C13.7032 0.579542 13.8148 0.74784 13.8901 0.933099C13.9653 1.11836 14.0026 1.31682 13.9999 1.51675C13.9971 1.71669 13.9542 1.91403 13.8739 2.09713C13.7935 2.28023 13.6773 2.44535 13.532 2.58276L9.14897 6.9659C9.14316 6.97169 9.13856 6.97856 9.13542 6.98614C9.13227 6.99371 9.13066 7.00183 9.13066 7.01003C9.13066 7.01823 9.13227 7.02634 9.13542 7.03392C9.13856 7.04149 9.14316 7.04837 9.14897 7.05416L13.532 11.4373C13.6728 11.5758 13.7848 11.7408 13.8615 11.9227C13.9382 12.1047 13.9781 12.3001 13.9789 12.4975C13.9798 12.695 13.9415 12.8907 13.8663 13.0733C13.7911 13.2559 13.6805 13.4218 13.5409 13.5615C13.4013 13.7011 13.2354 13.8118 13.0528 13.887C12.8703 13.9622 12.6746 14.0005 12.4771 13.9997C12.2796 13.999 12.0843 13.9591 11.9023 13.8824C11.7203 13.8058 11.5553 13.6938 11.4168 13.5531L7.03373 9.16993C7.02794 9.16413 7.02106 9.15952 7.01349 9.15638C7.00592 9.15324 6.9978 9.15162 6.9896 9.15162C6.9814 9.15162 6.97328 9.15324 6.96571 9.15638C6.95814 9.15952 6.95126 9.16413 6.94547 9.16993L2.56241 13.5531C2.42393 13.6939 2.25895 13.8058 2.07698 13.8825C1.89502 13.9592 1.69966 13.9992 1.50219 14C1.30472 14.0008 1.10904 13.9625 0.926437 13.8874C0.743834 13.8122 0.577922 13.7016 0.438271 13.562C0.29862 13.4224 0.187995 13.2565 0.112775 13.0739C0.0375556 12.8913 -0.000769034 12.6956 1.16924e-05 12.4981C0.000792419 12.3007 0.0406631 12.1053 0.117324 11.9233C0.193985 11.7413 0.305919 11.5763 0.446669 11.4378L4.82973 7.05466C4.83554 7.04887 4.84014 7.04199 4.84328 7.03442C4.84643 7.02684 4.84804 7.01872 4.84804 7.01053C4.84804 7.00233 4.84643 6.99421 4.84328 6.98664C4.84014 6.97906 4.83554 6.97218 4.82973 6.96639L0.446669 2.58325C0.169869 2.30197 0.0154287 1.9227 0.016989 1.52807C0.0185492 1.13343 0.175984 0.755393 0.454999 0.476306C0.734015 0.19722 1.11201 0.0396939 1.50664 0.0380407C1.90127 0.0363874 2.28056 0.190741 2.56191 0.46748L6.94497 4.85062C6.95076 4.85642 6.95764 4.86103 6.96521 4.86417C6.97278 4.86731 6.9809 4.86893 6.9891 4.86893C6.9973 4.86893 7.00542 4.86731 7.01299 4.86417C7.02056 4.86103 7.02744 4.85642 7.03323 4.85062L11.4173 0.467978Z" fill="var(--fill-0, #999999)"/>
</svg>
