<svg preserveAspectRatio="none" width="100%" height="100%" overflow="visible" style="display: block;" viewBox="0 0 18 16" fill="none" xmlns="http://www.w3.org/2000/svg">
<path id="Vector" d="M14.7276 14.3995C15.1796 14.3995 15.5459 14.7577 15.5459 15.1997C15.5458 15.6416 15.1795 16 14.7276 16H3.27081C2.81909 15.9998 2.4526 15.6415 2.45246 15.1997C2.45246 14.7579 2.81901 14.3996 3.27081 14.3995H14.7276ZM8.9992 0C9.16405 0 9.32709 0.0321796 9.4779 0.0945636L9.62415 0.167245L9.75921 0.257901C9.84481 0.323885 9.92131 0.400436 9.98617 0.486104L10.0749 0.621306L10.0821 0.634592L12.4931 5.10956L15.9823 2.18747L15.9983 2.17418C16.1997 2.01404 16.4479 1.92044 16.7071 1.9069C16.9665 1.89342 17.2238 1.96075 17.4416 2.09916C17.6593 2.23763 17.8268 2.44021 17.9195 2.67748C18.0121 2.91487 18.0251 3.1755 17.957 3.4207L17.9562 3.42383L15.637 11.6235C15.5423 11.9589 15.3383 12.2549 15.0561 12.4668C14.7737 12.6788 14.4283 12.7953 14.0723 12.7981H3.92852C3.57239 12.7957 3.22658 12.6794 2.94395 12.4675C2.6614 12.2556 2.45697 11.9591 2.36216 11.6235L0.0437874 3.42461L0.0429882 3.42148C-0.0251383 3.17629 -0.0120534 2.91566 0.0805489 2.67826C0.173179 2.44101 0.340747 2.2384 0.558448 2.09994C0.748953 1.97886 0.969506 1.91187 1.19538 1.90612L1.29288 1.90768L1.38958 1.91628C1.61347 1.94546 1.8255 2.03485 2.00174 2.17496C2.00709 2.17922 2.01247 2.18386 2.01772 2.18825L5.50526 5.11034L7.91714 0.634592L7.92433 0.621306C8.03027 0.433193 8.186 0.276526 8.37506 0.167245L8.5213 0.0945636C8.67198 0.0322474 8.83451 4.55525e-05 8.9992 0ZM6.94935 5.86607L6.94456 5.87466C6.82935 6.0823 6.66866 6.26251 6.47385 6.40219C6.279 6.54189 6.05492 6.63776 5.81774 6.68275C5.58053 6.72774 5.33582 6.72078 5.10169 6.66243C4.8676 6.60407 4.64937 6.49562 4.46316 6.34514C4.45946 6.34215 4.45561 6.33881 4.45197 6.33576L1.97856 4.26318L3.9397 11.1968L14.0595 11.1976L16.0206 4.26161L13.5464 6.33498C13.5428 6.33804 13.539 6.34136 13.5352 6.34436C13.3491 6.49472 13.1315 6.60331 12.8975 6.66165C12.6634 6.72 12.4187 6.72694 12.1815 6.68197C11.9443 6.63699 11.7202 6.54109 11.5254 6.40141C11.3306 6.26174 11.1699 6.08149 11.0546 5.87388L11.0499 5.86529L8.9992 2.05852L6.94935 5.86607Z" fill="var(--fill-0, #999999)"/>
</svg>
