<svg preserveAspectRatio="none" width="100%" height="100%" overflow="visible" style="display: block;" viewBox="0 0 13.25 15" fill="none" xmlns="http://www.w3.org/2000/svg">
<g id="Vector">
<path fill-rule="evenodd" clip-rule="evenodd" d="M12.9571 14.7071C13.3476 14.3166 13.3476 13.6834 12.9571 13.2929L7.16421 7.5L12.9571 1.70711C13.3476 1.31658 13.3476 0.683418 12.9571 0.292894C12.5666 -0.0976312 11.9334 -0.0976312 11.5429 0.292894L5.04289 6.79289C4.65237 7.18342 4.65237 7.81658 5.04289 8.20711L11.5429 14.7071C11.9334 15.0976 12.5666 15.0976 12.9571 14.7071Z" fill="var(--fill-0, #999999)"/>
<path fill-rule="evenodd" clip-rule="evenodd" d="M8.20711 14.7071C8.59763 14.3166 8.59763 13.6834 8.20711 13.2929L2.41421 7.5L8.20711 1.70711C8.59763 1.31658 8.59763 0.683418 8.20711 0.292894C7.81658 -0.0976312 7.18342 -0.0976312 6.79289 0.292894L0.292893 6.79289C-0.0976311 7.18342 -0.0976311 7.81658 0.292893 8.20711L6.79289 14.7071C7.18342 15.0976 7.81658 15.0976 8.20711 14.7071Z" fill="var(--fill-0, #999999)"/>
</g>
</svg>
