<svg preserveAspectRatio="none" width="100%" height="100%" overflow="visible" style="display: block;" viewBox="0 0 13.25 15" fill="none" xmlns="http://www.w3.org/2000/svg">
<g id="Vector">
<path fill-rule="evenodd" clip-rule="evenodd" d="M0.292894 14.7071C-0.0976312 14.3166 -0.0976312 13.6834 0.292894 13.2929L6.08579 7.5L0.292894 1.70711C-0.0976312 1.31658 -0.0976312 0.683418 0.292894 0.292894C0.683418 -0.0976312 1.31658 -0.0976312 1.70711 0.292894L8.20711 6.79289C8.59763 7.18342 8.59763 7.81658 8.20711 8.20711L1.70711 14.7071C1.31658 15.0976 0.683418 15.0976 0.292894 14.7071Z" fill="var(--fill-0, #999999)"/>
<path fill-rule="evenodd" clip-rule="evenodd" d="M5.04289 14.7071C4.65237 14.3166 4.65237 13.6834 5.04289 13.2929L10.8358 7.5L5.04289 1.70711C4.65237 1.31658 4.65237 0.683418 5.04289 0.292894C5.43342 -0.0976312 6.06658 -0.0976312 6.45711 0.292894L12.9571 6.79289C13.3476 7.18342 13.3476 7.81658 12.9571 8.20711L6.45711 14.7071C6.06658 15.0976 5.43342 15.0976 5.04289 14.7071Z" fill="var(--fill-0, #999999)"/>
</g>
</svg>
