<svg preserveAspectRatio="none" width="100%" height="100%" overflow="visible" style="display: block;" viewBox="0 0 20 20" fill="none" xmlns="http://www.w3.org/2000/svg">
<g id="Vector">
<path d="M18.2916 3.63636H17.2766L17.2739 3.6375L17.2727 3.64026V16.7965C17.2727 17.1639 17.4164 17.5163 17.6721 17.7761C17.9279 18.0359 18.2747 18.1818 18.6364 18.1818C18.998 18.1818 19.3449 18.0359 19.6006 17.7761C19.8563 17.5163 20 17.1639 20 16.7965V5.37186C20 4.91158 19.82 4.47015 19.4996 4.14468C19.1792 3.81921 18.7447 3.63636 18.2916 3.63636Z" fill="#9747FF"/>
<path d="M16 17.1429V1.78571C16 1.55121 15.953 1.319 15.8616 1.10235C15.7702 0.885698 15.6363 0.688842 15.4675 0.523024C15.2986 0.357205 15.0982 0.22567 14.8776 0.135929C14.657 0.0461889 14.4206 0 14.1818 0H1.81818C1.33597 0 0.873508 0.188137 0.532533 0.523024C0.191558 0.85791 0 1.31211 0 1.78571V17.5C0 18.163 0.268181 18.7989 0.745546 19.2678C1.22291 19.7366 1.87036 20 2.54545 20H18.1295C18.1364 20.0001 18.1433 19.9988 18.1496 19.9962C18.156 19.9937 18.1618 19.9899 18.1666 19.9851C18.1715 19.9803 18.1754 19.9746 18.178 19.9684C18.1806 19.9621 18.1819 19.9554 18.1818 19.9487C18.1818 19.9374 18.178 19.9265 18.171 19.9177C18.164 19.9088 18.1542 19.9024 18.1432 19.8996C17.528 19.7338 16.9851 19.3744 16.598 18.8764C16.2108 18.3784 16.0008 17.7694 16 17.1429ZM2.90909 4.28571C2.90909 4.09627 2.98571 3.91459 3.1221 3.78064C3.25849 3.64668 3.44348 3.57143 3.63636 3.57143H6.54545C6.73834 3.57143 6.92332 3.64668 7.05971 3.78064C7.1961 3.91459 7.27273 4.09627 7.27273 4.28571V7.14286C7.27273 7.3323 7.1961 7.51398 7.05971 7.64793C6.92332 7.78189 6.73834 7.85714 6.54545 7.85714H3.63636C3.44348 7.85714 3.25849 7.78189 3.1221 7.64793C2.98571 7.51398 2.90909 7.3323 2.90909 7.14286V4.28571ZM12.3636 16.4286H3.65682C3.26545 16.4286 2.92955 16.133 2.91 15.7487C2.90526 15.6521 2.92054 15.5556 2.9549 15.465C2.98927 15.3743 3.042 15.2915 3.10992 15.2215C3.17783 15.1515 3.25951 15.0958 3.35 15.0577C3.44049 15.0196 3.53792 15 3.63636 15H12.3432C12.7345 15 13.0705 15.2955 13.09 15.6799C13.0947 15.7765 13.0795 15.873 13.0451 15.9636C13.0107 16.0542 12.958 16.137 12.8901 16.207C12.8222 16.277 12.7405 16.3328 12.65 16.3708C12.5595 16.4089 12.4621 16.4286 12.3636 16.4286ZM12.3636 13.5714H3.65682C3.26545 13.5714 2.92955 13.2759 2.91 12.8915C2.90526 12.7949 2.92054 12.6984 2.9549 12.6078C2.98927 12.5172 3.042 12.4344 3.10992 12.3644C3.17783 12.2944 3.25951 12.2387 3.35 12.2006C3.44049 12.1625 3.53792 12.1429 3.63636 12.1429H12.3432C12.7345 12.1429 13.0705 12.4384 13.09 12.8228C13.0947 12.9193 13.0795 13.0159 13.0451 13.1065C13.0107 13.1971 12.958 13.2799 12.8901 13.3499C12.8222 13.4199 12.7405 13.4756 12.65 13.5137C12.5595 13.5518 12.4621 13.5714 12.3636 13.5714ZM12.3636 10.7143H3.65682C3.26545 10.7143 2.92955 10.4187 2.91 10.0344C2.90526 9.9378 2.92054 9.84128 2.9549 9.75067C2.98927 9.66006 3.042 9.57725 3.10992 9.50725C3.17783 9.43725 3.25951 9.38152 3.35 9.34344C3.44049 9.30536 3.53792 9.28572 3.63636 9.28571H12.3432C12.7345 9.28571 13.0705 9.58125 13.09 9.96562C13.0947 10.0622 13.0795 10.1587 13.0451 10.2493C13.0107 10.3399 12.958 10.4227 12.8901 10.4927C12.8222 10.5627 12.7405 10.6185 12.65 10.6566C12.5595 10.6946 12.4621 10.7143 12.3636 10.7143ZM12.3636 7.85714H9.475C9.08364 7.85714 8.74773 7.56161 8.72818 7.17723C8.72344 7.08065 8.73872 6.98414 8.77308 6.89353C8.80745 6.80292 8.86019 6.72011 8.9281 6.65011C8.99602 6.58011 9.07769 6.52438 9.16818 6.4863C9.25868 6.44822 9.3561 6.42858 9.45455 6.42857H12.3432C12.7345 6.42857 13.0705 6.72411 13.09 7.10848C13.0947 7.20506 13.0795 7.30158 13.0451 7.39219C13.0107 7.48279 12.958 7.56561 12.8901 7.63561C12.8222 7.7056 12.7405 7.76133 12.65 7.79941C12.5595 7.83749 12.4621 7.85713 12.3636 7.85714ZM12.3636 5H9.475C9.08364 5 8.74773 4.70446 8.72818 4.32009C8.72344 4.22351 8.73872 4.12699 8.77308 4.03639C8.80745 3.94578 8.86019 3.86296 8.9281 3.79296C8.99602 3.72297 9.07769 3.66724 9.16818 3.62916C9.25868 3.59108 9.3561 3.57144 9.45455 3.57143H12.3432C12.7345 3.57143 13.0705 3.86696 13.09 4.25134C13.0947 4.34792 13.0795 4.44443 13.0451 4.53504C13.0107 4.62565 12.958 4.70846 12.8901 4.77846C12.8222 4.84846 12.7405 4.90419 12.65 4.94227C12.5595 4.98035 12.4621 4.99999 12.3636 5Z" fill="#9747FF"/>
</g>
</svg>
