<svg preserveAspectRatio="none" width="100%" height="100%" overflow="visible" style="display: block;" viewBox="0 0 16 16" fill="none" xmlns="http://www.w3.org/2000/svg">
<path id="Vector" d="M14.2222 8.88889V14.2222C14.2222 14.6937 14.0349 15.1459 13.7015 15.4793C13.3681 15.8127 12.9159 16 12.4444 16H1.77778C1.30628 16 0.854097 15.8127 0.520699 15.4793C0.187301 15.1459 0 14.6937 0 14.2222V3.55556C0 3.08406 0.187301 2.63187 0.520699 2.29848C0.854097 1.96508 1.30628 1.77778 1.77778 1.77778H7.11111V3.55556H1.77778V14.2222H12.4444V8.88889H14.2222ZM8.88889 0V1.77778H12.9653L6.03822 8.70489L7.29511 9.96178L14.2222 3.03467V7.11111H16V0H8.88889Z" fill="var(--fill-0, #999999)"/>
</svg>
