<svg preserveAspectRatio="none" width="100%" height="100%" overflow="visible" style="display: block;" viewBox="0 0 16.6667 16.6667" fill="none" xmlns="http://www.w3.org/2000/svg">
<g id="Vector">
<path d="M8.33333 0C6.68516 0 5.07399 0.488741 3.70358 1.40442C2.33317 2.3201 1.26507 3.62159 0.634341 5.1443C0.00361071 6.66702 -0.161417 8.34258 0.160126 9.95908C0.48167 11.5756 1.27534 13.0604 2.44078 14.2259C3.60622 15.3913 5.09107 16.185 6.70758 16.5065C8.32409 16.8281 9.99965 16.6631 11.5224 16.0323C13.0451 15.4016 14.3466 14.3335 15.2622 12.9631C16.1779 11.5927 16.6667 9.98151 16.6667 8.33333C16.6643 6.12393 15.7855 4.0057 14.2233 2.44342C12.661 0.881131 10.5427 0.00238964 8.33333 0ZM8.33333 15.2778C6.95985 15.2778 5.61722 14.8705 4.47521 14.1074C3.3332 13.3444 2.44311 12.2598 1.91751 10.9909C1.3919 9.72192 1.25437 8.32563 1.52233 6.97854C1.79028 5.63145 2.45167 4.39407 3.42287 3.42287C4.39407 2.45167 5.63145 1.79028 6.97854 1.52232C8.32563 1.25437 9.72193 1.39189 10.9909 1.9175C12.2598 2.44311 13.3444 3.3332 14.1074 4.47521C14.8705 5.61721 15.2778 6.95985 15.2778 8.33333C15.2758 10.1745 14.5435 11.9397 13.2416 13.2416C11.9397 14.5435 10.1745 15.2758 8.33333 15.2778Z" fill="var(--fill-0, white)"/>
<path d="M8.33322 6.94465H7.63878C7.4546 6.94465 7.27797 7.01782 7.14773 7.14805C7.0175 7.27829 6.94434 7.45492 6.94434 7.6391C6.94434 7.82328 7.0175 7.99991 7.14773 8.13014C7.27797 8.26038 7.4546 8.33354 7.63878 8.33354H8.33322V12.5002C8.33322 12.6844 8.40639 12.861 8.53662 12.9913C8.66685 13.1215 8.84349 13.1947 9.02766 13.1947C9.21184 13.1947 9.38848 13.1215 9.51871 12.9913C9.64894 12.861 9.72211 12.6844 9.72211 12.5002V8.33354C9.72211 7.96519 9.57578 7.61192 9.31531 7.35145C9.05484 7.09098 8.70158 6.94465 8.33322 6.94465Z" fill="var(--fill-0, white)"/>
<path d="M8.33333 5.55534C8.90863 5.55534 9.375 5.08897 9.375 4.51367C9.375 3.93837 8.90863 3.472 8.33333 3.472C7.75804 3.472 7.29167 3.93837 7.29167 4.51367C7.29167 5.08897 7.75804 5.55534 8.33333 5.55534Z" fill="var(--fill-0, white)"/>
</g>
</svg>
