<svg preserveAspectRatio="none" width="100%" height="100%" overflow="visible" style="display: block;" viewBox="0 0 16.6667 16.6667" fill="none" xmlns="http://www.w3.org/2000/svg">
<g id="Vector">
<path d="M8.33333 16.6667C6.68516 16.6667 5.07399 16.1779 3.70358 15.2622C2.33317 14.3466 1.26507 13.0451 0.634341 11.5224C0.00361074 9.99965 -0.161417 8.32409 0.160126 6.70758C0.48167 5.09108 1.27534 3.60622 2.44078 2.44078C3.60622 1.27534 5.09108 0.48167 6.70758 0.160126C8.32409 -0.161417 9.99965 0.00361074 11.5224 0.634341C13.0451 1.26507 14.3466 2.33317 15.2622 3.70358C16.1779 5.07399 16.6667 6.68516 16.6667 8.33333C16.6643 10.5427 15.7855 12.661 14.2233 14.2233C12.661 15.7855 10.5427 16.6643 8.33333 16.6667ZM8.33333 1.38889C6.95985 1.38889 5.61722 1.79618 4.47521 2.55924C3.3332 3.32231 2.44312 4.40688 1.91751 5.67581C1.3919 6.94474 1.25438 8.34104 1.52233 9.68813C1.79028 11.0352 2.45167 12.2726 3.42287 13.2438C4.39407 14.215 5.63145 14.8764 6.97854 15.1443C8.32563 15.4123 9.72193 15.2748 10.9909 14.7492C12.2598 14.2236 13.3444 13.3335 14.1074 12.1915C14.8705 11.0495 15.2778 9.70682 15.2778 8.33333C15.2758 6.49217 14.5435 4.727 13.2416 3.42511C11.9397 2.12321 10.1745 1.39091 8.33333 1.38889Z" fill="var(--fill-0, #DAE3F1)"/>
<path d="M6.10776 10.463C5.7825 10.6667 5.35367 10.5681 5.15013 10.2427C4.94674 9.91761 5.04529 9.4892 5.37027 9.28563L7.16973 8.15845C7.46162 7.97561 7.63888 7.65542 7.63888 7.31099V4.86111C7.63888 4.47758 7.94979 4.16667 8.33332 4.16667C8.71685 4.16667 9.02777 4.47758 9.02777 4.86111V8.08042C9.02777 8.42486 8.8505 8.74506 8.55859 8.9279L6.10776 10.463Z" fill="var(--fill-0, #DAE3F1)"/>
</g>
</svg>
