<svg preserveAspectRatio="none" width="100%" height="100%" overflow="visible" style="display: block;" viewBox="0 0 20 13" fill="none" xmlns="http://www.w3.org/2000/svg">
<path id="Vector" fill-rule="evenodd" clip-rule="evenodd" d="M14.2424 4.13636C14.5639 4.13636 14.8722 4.01185 15.0995 3.79022C15.3268 3.56858 15.4545 3.26798 15.4545 2.95455C15.4545 2.64111 15.3268 2.34051 15.0995 2.11887C14.8722 1.89724 14.5639 1.77273 14.2424 1.77273C13.921 1.77273 13.6126 1.89724 13.3853 2.11887C13.158 2.34051 13.0303 2.64111 13.0303 2.95455C13.0303 3.26798 13.158 3.56858 13.3853 3.79022C13.6126 4.01185 13.921 4.13636 14.2424 4.13636ZM14.2424 5.90909C15.0461 5.90909 15.8169 5.59781 16.3852 5.04373C16.9535 4.48964 17.2727 3.73814 17.2727 2.95455C17.2727 2.17095 16.9535 1.41945 16.3852 0.865366C15.8169 0.311282 15.0461 0 14.2424 0C13.4387 0 12.668 0.311282 12.0997 0.865366C11.5314 1.41945 11.2121 2.17095 11.2121 2.95455C11.2121 3.73814 11.5314 4.48964 12.0997 5.04373C12.668 5.59781 13.4387 5.90909 14.2424 5.90909ZM11.5152 13V10.6364C11.5152 9.77441 11.164 8.94776 10.5388 8.33827C9.91372 7.72877 9.06587 7.38636 8.18182 7.38636H3.33333C2.44928 7.38636 1.60143 7.72877 0.976311 8.33827C0.351189 8.94776 0 9.77441 0 10.6364V13H1.81818V10.6364C1.81818 9.82091 2.49697 9.15909 3.33333 9.15909H8.18182C9.01818 9.15909 9.69697 9.82091 9.69697 10.6364V13H11.5152ZM20 10.6364V13H18.1818V10.6364C18.1818 9.82091 17.503 9.15909 16.6667 9.15909H14.5227C14.0332 9.15909 13.6364 8.76225 13.6364 8.27273C13.6364 7.7832 14.0332 7.38636 14.5227 7.38636H16.6667C17.5507 7.38636 18.3986 7.72877 19.0237 8.33827C19.6488 8.94776 20 9.77441 20 10.6364ZM6.9697 2.95455C6.9697 3.26798 6.84199 3.56858 6.61468 3.79022C6.38736 4.01185 6.07905 4.13636 5.75758 4.13636C5.4361 4.13636 5.12779 4.01185 4.90048 3.79022C4.67316 3.56858 4.54545 3.26798 4.54545 2.95455C4.54545 2.64111 4.67316 2.34051 4.90048 2.11887C5.12779 1.89724 5.4361 1.77273 5.75758 1.77273C6.07905 1.77273 6.38736 1.89724 6.61468 2.11887C6.84199 2.34051 6.9697 2.64111 6.9697 2.95455ZM8.78788 2.95455C8.78788 3.73814 8.46862 4.48964 7.90032 5.04373C7.33203 5.59781 6.56126 5.90909 5.75758 5.90909C4.95389 5.90909 4.18312 5.59781 3.61483 5.04373C3.04654 4.48964 2.72727 3.73814 2.72727 2.95455C2.72727 2.17095 3.04654 1.41945 3.61483 0.865366C4.18312 0.311282 4.95389 0 5.75758 0C6.56126 0 7.33203 0.311282 7.90032 0.865366C8.46862 1.41945 8.78788 2.17095 8.78788 2.95455Z" fill="var(--fill-0, white)"/>
</svg>
