<svg preserveAspectRatio="none" width="100%" height="100%" overflow="visible" style="display: block;" viewBox="0 0 20 20" fill="none" xmlns="http://www.w3.org/2000/svg">
<g id="Vector">
<path d="M5.89744 10C6.46388 10 6.92308 10.4592 6.92308 11.0256V12.0513H7.94872C8.51516 12.0513 8.97436 12.5105 8.97436 13.0769C8.97436 13.6434 8.51516 14.1026 7.94872 14.1026H6.92308V15.1282C6.92308 15.6947 6.46388 16.1538 5.89744 16.1538C5.33099 16.1538 4.8718 15.6946 4.8718 15.1282V14.1026H3.84615C3.27971 14.1026 2.82051 13.6434 2.82051 13.0769C2.82051 12.5105 3.27971 12.0513 3.84615 12.0513H4.8718V11.0256C4.8718 10.4592 5.33099 10 5.89744 10Z" fill="var(--fill-0, #999999)"/>
<path d="M12.0513 13.0769C12.6177 13.0769 13.0769 13.5361 13.0769 14.1026C13.0769 14.669 12.6177 15.1282 12.0513 15.1282C11.4848 15.1282 11.0256 14.669 11.0256 14.1026C11.0256 13.5361 11.4848 13.0769 12.0513 13.0769Z" fill="var(--fill-0, #999999)"/>
<path d="M15.1282 11.0256C15.6946 11.0256 16.1538 11.4848 16.1538 12.0513C16.1538 12.6177 15.6946 13.0769 15.1282 13.0769C14.5618 13.0769 14.1026 12.6177 14.1026 12.0513C14.1026 11.4848 14.5618 11.0256 15.1282 11.0256Z" fill="var(--fill-0, #999999)"/>
<path fill-rule="evenodd" clip-rule="evenodd" d="M7.94872 0C8.37355 0 8.71795 0.344396 8.71795 0.769231V1.73177C8.71795 2.25632 8.72244 2.40109 8.74699 2.51502C8.82962 2.89783 9.08271 3.2215 9.43409 3.39443C9.53866 3.44588 9.67758 3.4856 10.1863 3.61278L10.2474 3.6278C10.6307 3.72362 10.9238 3.79392 11.1789 3.91126C12.009 4.2932 12.6023 5.05354 12.7714 5.95152C12.7838 6.01727 12.7935 6.08436 12.8005 6.15385H13.5897C14.773 6.15385 15.7306 6.15222 16.4934 6.24599C17.2765 6.3423 17.9489 6.54863 18.5206 7.02724C18.7863 7.24966 19.0225 7.50741 19.2238 7.79347C19.6496 8.3989 19.8311 9.10271 19.9169 9.93189C20.0014 10.7497 20 11.7811 20 13.0769C20 14.3727 20.0014 15.4041 19.9169 16.222C19.8311 17.0511 19.6496 17.7549 19.2238 18.3604C19.0225 18.6464 18.7863 18.9042 18.5206 19.1266C17.9489 19.6052 17.2765 19.8115 16.4934 19.9079C15.7306 20.0016 14.773 20 13.5897 20H6.41026C5.22703 20 4.26939 20.0016 3.50661 19.9079C2.72353 19.8115 2.05113 19.6052 1.47937 19.1266C1.21369 18.9042 0.977498 18.6464 0.776243 18.3604C0.350391 17.7549 0.168861 17.0511 0.0831344 16.222C-0.00138324 15.4041 1.39369e-06 14.3727 1.39369e-06 13.0769C1.39369e-06 11.7811 -0.00138324 10.7497 0.0831344 9.93189C0.168861 9.10271 0.350391 8.3989 0.776243 7.79347C0.977498 7.50741 1.21369 7.24966 1.47937 7.02724C2.05113 6.54863 2.72353 6.3423 3.50661 6.24599C4.26939 6.15221 5.22703 6.15385 6.41026 6.15385H11.239C11.1431 5.78202 10.8874 5.4702 10.5359 5.30849C10.4431 5.26582 10.3208 5.2317 9.8748 5.12019L9.8137 5.10517C9.37674 4.99593 9.04251 4.91705 8.75501 4.77564C7.98155 4.39509 7.42419 3.68121 7.24259 2.83854C7.17513 2.52532 7.17949 2.18219 7.17949 1.73177V0.769231C7.17949 0.344397 7.52389 1.85017e-06 7.94872 0ZM6.41026 7.69231C5.18792 7.69231 4.34111 7.69384 3.69391 7.77344C3.06738 7.85052 2.72375 7.99128 2.46695 8.20613C2.30614 8.34074 2.1603 8.4997 2.03426 8.67889C1.82438 8.97726 1.68684 9.38153 1.61358 10.0901C1.53914 10.8105 1.53846 11.7483 1.53846 13.0769C1.53846 14.4056 1.53914 15.3434 1.61358 16.0637C1.68684 16.7723 1.82438 17.1766 2.03426 17.475C2.1603 17.6542 2.30614 17.8131 2.46695 17.9477C2.72375 18.1626 3.06738 18.3033 3.69391 18.3804C4.34111 18.46 5.18792 18.4615 6.41026 18.4615H13.5897C14.8121 18.4615 15.6589 18.46 16.3061 18.3804C16.9326 18.3033 17.2762 18.1626 17.5331 17.9477C17.6939 17.8131 17.8397 17.6542 17.9657 17.475C18.1756 17.1766 18.3132 16.7723 18.3864 16.0637C18.4609 15.3434 18.4615 14.4056 18.4615 13.0769C18.4615 11.7483 18.4609 10.8105 18.3864 10.0901C18.3132 9.38153 18.1756 8.97726 17.9657 8.67889C17.8397 8.4997 17.6939 8.34074 17.5331 8.20613C17.2762 7.99128 16.9326 7.85052 16.3061 7.77344C15.6589 7.69384 14.8121 7.69231 13.5897 7.69231H6.41026Z" fill="var(--fill-0, #999999)"/>
</g>
</svg>
