<svg preserveAspectRatio="none" width="100%" height="100%" overflow="visible" style="display: block;" viewBox="0 0 22.0004 15.9997" fill="none" xmlns="http://www.w3.org/2000/svg">
<path id="Vector" d="M12.5519 9.88788L8.0238 9.88683L6.74977 14.773C6.53801 15.5847 5.77306 15.9982 4.96612 15.9984L1.96743 15.9997C1.58216 15.9997 1.21815 15.8972 0.88523 15.7356C0.439119 15.5188 0.123466 15.1412 0.000978417 14.6684C-0.0213404 13.1864 0.338418 11.753 1.05581 10.4548C1.27023 10.067 1.49661 9.71658 1.73813 9.34706L2.47412 8.22046C2.64576 7.95764 2.76453 7.6752 2.83494 7.37237C2.90216 7.08313 2.87081 6.802 2.7361 6.5397C2.50228 6.08493 2.00037 5.66337 1.45914 5.65421C1.20806 5.65003 0.957235 5.47743 0.957235 5.20415L0.95564 0.919748C0.975302 0.680723 1.15837 0.475957 1.40813 0.475434L2.86789 0.471511C2.87586 0.222811 3.06158 0.00653787 3.32117 0.0052303L4.33243 0C4.46342 0.0162139 4.58033 0.0740087 4.67066 0.163708L4.9818 0.47308H18.6484C18.6609 0.235363 18.8285 0.0109836 19.0801 0.00889151L20.0616 0.000261515C20.204 0.000261515 20.3417 0.0525645 20.4392 0.149848L20.7618 0.472034L21.4961 0.471511C21.7709 0.471511 21.9991 0.66111 21.9994 0.945638L22.0004 5.15237C22.0004 5.411 21.8222 5.64506 21.5477 5.64741L20.7618 5.65369L20.3972 6.01484C20.33 6.05538 20.2311 6.12154 20.1339 6.12154H14.2138L13.0413 9.56674C12.9704 9.7749 12.7857 9.88944 12.5519 9.88788ZM11.9689 3.29456C12.2564 3.29456 12.4389 3.05162 12.4318 2.81495C12.4246 2.57827 12.228 2.35625 11.9548 2.35651L9.06137 2.35834C8.79141 2.35834 8.60277 2.60077 8.60967 2.83848C8.61658 3.0762 8.79992 3.29456 9.0619 3.29456H11.9689ZM9.23938 8.5008C9.31591 8.66556 9.38977 8.81383 9.50721 8.94642L12.2442 8.94538L13.2015 6.12206L10.6165 6.12128C10.599 6.38227 10.6447 6.64012 10.756 6.8815C10.9093 7.17649 11.1649 7.38649 11.4822 7.50181C11.7572 7.60171 11.8823 7.90507 11.7673 8.14645C11.6392 8.41529 11.349 8.48145 11.0876 8.36743C10.172 7.96731 9.74368 7.32555 9.65733 6.342C8.92187 6.75441 9.03054 7.8614 9.23938 8.5008Z" fill="var(--fill-0, #999999)"/>
</svg>
