<svg preserveAspectRatio="none" width="100%" height="100%" overflow="visible" style="display: block;" viewBox="0 0 22.1781 20.9305" fill="none" xmlns="http://www.w3.org/2000/svg">
<path id="Vector" d="M17.279 15.858V10.6617L11.9851 13.8169C11.4333 14.1456 10.7458 14.1456 10.1941 13.8169L5.39329 10.9556V15.8794C5.39329 15.9649 5.43741 16.0445 5.5095 16.0904L10.4577 19.2359C10.8543 19.4879 11.3587 19.4962 11.7634 19.2574L17.156 16.0728C17.2319 16.0278 17.279 15.9463 17.279 15.858ZM20.5398 12.4146V8.71832L18.779 9.76714V15.858C18.779 16.477 18.4516 17.05 17.9187 17.3648L12.5261 20.5484C11.6356 21.0742 10.5258 21.0563 9.65306 20.5015L4.70482 17.356C4.19976 17.0348 3.89329 16.478 3.89329 15.8794V10.0621L0.61009 8.10503C-0.203361 7.62027 -0.203365 6.44234 0.61009 5.95757L10.1941 0.246637C10.746 -0.0822423 11.4332 -0.082182 11.9851 0.246637L21.5691 5.95757C22.1692 6.31523 22.3252 7.04948 22.0398 7.60503V12.4146C22.0398 12.8288 21.7039 13.1646 21.2898 13.1646C20.8756 13.1646 20.5398 12.8288 20.5398 12.4146ZM11.2175 1.53472C11.1387 1.48782 11.0405 1.48776 10.9617 1.53472L1.73802 7.03082L10.9617 12.5279C11.0405 12.5749 11.1387 12.5749 11.2175 12.5279L20.4402 7.03082L11.2175 1.53472Z" fill="var(--fill-0, #999999)"/>
</svg>
