<svg preserveAspectRatio="none" width="100%" height="100%" overflow="visible" style="display: block;" viewBox="0 0 22 22" fill="none" xmlns="http://www.w3.org/2000/svg">
<g id="Vector">
<path d="M11.002 0C11.4529 0.000112164 11.8184 0.364748 11.8199 0.81543L11.8268 2.89258C15.6697 3.306 18.7118 6.31917 19.1278 10.2334L21.1889 10.2461C21.6173 10.2489 21.9662 10.5797 22 11H14.6979C14.7344 10.5807 15.0842 10.2507 15.513 10.2471L17.4763 10.2314C17.0661 7.22084 14.7583 4.95554 11.8297 4.55762L11.8209 6.54199C11.8187 6.99245 11.4527 7.35623 11.002 7.35645C10.5508 7.35645 10.1839 6.99182 10.182 6.54102L10.1742 4.55762C7.2281 4.94962 4.91154 7.26723 4.53056 10.2363L6.4841 10.2451C6.91518 10.2471 7.26681 10.5789 7.30304 11H0C0.0374483 10.5814 0.388369 10.2528 0.816986 10.252L2.86923 10.248C3.2803 6.38493 6.25803 3.32123 10.1654 2.89453L10.183 0.810547C10.1871 0.361726 10.5527 0 11.002 0Z" fill="var(--fill-0, #999999)"/>
<path d="M10.998 22C10.5471 21.9999 10.1816 21.6353 10.1801 21.1846L10.1732 19.1074C6.3303 18.694 3.28823 15.6808 2.87216 11.7666L0.811124 11.7539C0.382732 11.7511 0.0338332 11.4203 0 11H7.30304C7.26657 11.4193 6.91584 11.7493 6.48703 11.7529L4.52372 11.7686C4.93392 14.7792 7.24169 17.0445 10.1703 17.4424L10.1791 15.458C10.1813 15.0076 10.5473 14.6438 10.998 14.6436C11.4492 14.6436 11.8161 15.0082 11.818 15.459L11.8258 17.4424C14.7719 17.0504 17.0885 14.7328 17.4694 11.7637L15.5159 11.7549C15.0848 11.7529 14.7342 11.4211 14.6979 11H22C21.9626 11.4186 21.6116 11.7472 21.183 11.748L19.1308 11.752C18.7197 15.6151 15.742 18.6788 11.8346 19.1055L11.817 21.1895C11.8129 21.6383 11.4473 22 10.998 22Z" fill="var(--fill-0, #999999)"/>
</g>
</svg>
