<svg preserveAspectRatio="none" width="100%" height="100%" overflow="visible" style="display: block;" viewBox="0 0 19 22" fill="none" xmlns="http://www.w3.org/2000/svg">
<path id="Vector" d="M12.068 21.8644C10.7932 22.046 8.21122 22.0446 6.93862 21.8637C6.42972 21.7914 5.95403 21.6814 5.50072 21.4672C4.53201 21.0105 4.47065 20.1834 4.39919 19.2606C4.32484 18.2953 3.48751 17.9194 2.63068 17.7555L1.56886 17.5527C1.23825 17.4895 0.965398 17.3207 0.787825 17.0335C0.375655 16.3653 0.286147 15.2538 0.356165 14.4935C0.400197 14.0168 1.0051 13.5132 0.658616 12.2011C0.139613 10.2342 -0.5483 6.38559 0.721416 4.6379C2.43145 1.39573 5.92516 -0.0888168 9.53869 0.00410022C11.2278 -0.0370386 12.8895 0.286398 14.4075 0.990014C16.1204 1.78371 17.476 3.08597 18.33 4.73578C19.0424 5.6997 19.0525 7.55095 18.958 8.7C18.8591 9.89161 18.6461 11.0392 18.3365 12.1925C17.9626 13.5842 18.5927 14.0254 18.6331 14.5829C18.6866 15.3262 18.5833 16.3958 18.1957 17.0455C18.0066 17.3619 17.7121 17.525 17.3569 17.5903L16.4193 17.7626C15.5899 17.9151 14.6861 18.2456 14.5757 19.1947C14.5338 19.5578 14.5136 19.911 14.4371 20.2671C14.1989 21.3871 13.0959 21.7183 12.0695 21.8644H12.068ZM8.43355 14.5673C8.8847 13.8338 8.28269 13.1607 7.70161 12.7316C6.96966 12.1904 6.13738 11.8117 5.24013 11.6187C4.41002 11.44 3.62321 11.6145 3.1338 12.3252C2.84796 12.7394 2.72308 13.2047 2.66533 13.7012C2.49281 15.1673 3.89895 16.0518 5.25024 16.0334C6.34094 16.0192 7.85391 15.5099 8.43355 14.5673ZM15.6779 15.3645C16.01 15.0751 16.2518 14.6963 16.3052 14.2587C16.3767 13.6728 16.2489 13.0926 15.9905 12.5763C15.6007 11.7975 14.8038 11.4492 13.9332 11.601C12.927 11.7769 11.9814 12.1961 11.1765 12.8203C10.916 13.0224 10.7008 13.2522 10.5341 13.5253C10.1421 14.1665 10.6056 14.8311 11.1433 15.207C12.4181 16.0965 14.4046 16.476 15.6772 15.3652L15.6779 15.3645ZM10.7073 18.6421C10.7557 17.9257 10.2981 17.0689 9.93931 16.4511C9.84908 16.2958 9.70832 16.1851 9.54951 16.171C9.39071 16.1568 9.19654 16.2029 9.10342 16.3454C8.71002 16.9498 8.24082 17.8584 8.25165 18.5833C8.25814 19.0032 8.52811 19.3273 8.94317 19.4202C9.58633 19.5642 10.6474 19.5167 10.7066 18.6414L10.7073 18.6421Z" fill="var(--fill-0, #999999)"/>
</svg>
