<svg preserveAspectRatio="none" width="100%" height="100%" overflow="visible" style="display: block;" viewBox="0 0 20 20" fill="none" xmlns="http://www.w3.org/2000/svg">
<path id="Vector" d="M9.78639 17.613C10.0244 17.613 10.2262 17.613 10.4359 17.591C10.6667 17.5668 10.8904 17.7153 10.9371 17.9427C11.0043 18.2706 11.0946 18.5889 11.2078 18.8752C11.3074 19.1269 11.1709 19.431 10.9035 19.473C10.549 19.5287 10.1677 19.57 9.78639 19.57C4.40388 19.57 0 15.1668 0 9.785C0 4.40325 4.40388 0 9.78639 0C15.1689 0 19.5728 4.40325 19.5728 9.785C19.5728 10.2743 19.4945 10.7341 19.4162 11.2528C19.3965 11.3513 19.2884 11.4041 19.1973 11.3617C18.7949 11.1745 18.3879 11.0332 17.9449 10.9376C17.718 10.8886 17.5693 10.6652 17.5935 10.4344C17.6155 10.2248 17.6155 10.023 17.6155 9.785C17.6155 5.4796 14.0924 1.957 9.78639 1.957C5.48038 1.957 1.95728 5.4796 1.95728 9.785C1.95728 14.0904 5.48038 17.613 9.78639 17.613ZM10.2757 10.0786L12.7981 11.543C13.0406 11.6838 13.0583 12.0234 12.842 12.2017C12.7089 12.3114 12.5808 12.426 12.462 12.55C12.3232 12.6948 12.1023 12.7399 11.9302 12.6367L8.9978 10.8775C8.8799 10.8068 8.80775 10.6794 8.80775 10.5419V5.2839C8.80775 5.06774 8.98301 4.8925 9.19921 4.8925H9.88425C10.1004 4.8925 10.2757 5.06774 10.2757 5.2839V10.0786ZM15.4038 15.4114L16.2796 13.5002C16.4193 13.1952 16.853 13.1959 16.9918 13.5013L17.8602 15.4114L19.7705 16.2796C20.076 16.4184 20.0766 16.852 19.7716 16.9918L17.8602 17.8674L16.9916 19.7711C16.8525 20.0758 16.4198 20.0765 16.2798 19.7721L15.4038 17.8674L13.4988 16.9915C13.1944 16.8516 13.1951 16.4189 13.4999 16.2798L15.4038 15.4114Z" fill="var(--fill-0, #999999)"/>
</svg>
