<svg preserveAspectRatio="none" width="100%" height="100%" overflow="visible" style="display: block;" viewBox="0 0 15.5 19.4324" fill="none" xmlns="http://www.w3.org/2000/svg">
<path id="Vector" d="M14 11.9324C13.9998 9.51025 12.8804 8.04414 11.6016 6.53398C10.551 5.29341 9.31423 3.95737 8.89648 2.05449C7.94498 2.96341 7.39379 4.21794 7.08496 5.47343C6.69729 7.04954 6.72199 8.50297 6.74121 8.94023C6.76576 9.50207 6.18304 10.043 5.54395 9.74199C5.07604 9.5216 4.05397 8.86267 3.66016 7.3455C2.33754 8.46283 1.50014 10.1273 1.5 11.9324C1.5 15.2207 4.27227 17.9324 7.75 17.9324C11.2277 17.9324 14 15.2207 14 11.9324ZM15.5 11.9324C15.5 16.1 12.0043 19.4324 7.75 19.4324C3.49573 19.4324 0 16.1 0 11.9324C0.000161708 9.2183 1.49775 6.78357 3.71973 5.4666L3.83301 5.40898C4.39929 5.17033 4.98367 5.61484 5.00195 6.17363C5.01884 6.69776 5.12834 7.10363 5.27344 7.41679C5.32196 6.75139 5.42235 5.95081 5.62793 5.11503C6.06143 3.35269 6.98646 1.30801 8.9668 0.124799C9.56752 -0.234081 10.235 0.236353 10.252 0.833783C10.3071 2.77305 11.4092 3.98653 12.7461 5.56523C14.0589 7.11551 15.4998 8.93928 15.5 11.9324Z" fill="var(--fill-0, #C0392B)"/>
</svg>
