<svg preserveAspectRatio="none" width="100%" height="100%" overflow="visible" style="display: block;" viewBox="0 0 10.4004 21.2002" fill="none" xmlns="http://www.w3.org/2000/svg">
<path id="Vector" d="M0 16C2.82465e-07 14.4277 0.69936 13.0197 1.7998 12.0674V3.39844C1.7998 1.51982 3.32328 0 5.2002 0C7.07787 0.000105654 8.59961 1.52269 8.59961 3.40039V12.1309C8.99929 12.5477 9.3852 13.0579 9.69434 13.6084C10.0836 14.3017 10.4004 15.1438 10.4004 16C10.4004 18.8718 8.07199 21.2001 5.2002 21.2002C2.32831 21.2002 0 18.8719 0 16ZM5.25586 15C5.80814 15 6.25586 15.4477 6.25586 16C6.25586 16.5523 5.80814 17 5.25586 17H5.2002C4.64791 17 4.2002 16.5523 4.2002 16C4.2002 15.4477 4.64791 15 5.2002 15H5.25586ZM3.7998 12.5527C3.7998 12.8796 3.64019 13.186 3.37207 13.373C2.54063 13.953 2 14.9134 2 16C2 17.7673 3.43288 19.2002 5.2002 19.2002C6.96742 19.2001 8.40039 17.7672 8.40039 16C8.40039 15.6123 8.24614 15.115 7.9502 14.5879C7.65954 14.0702 7.27746 13.6065 6.93262 13.2979C6.72086 13.1082 6.59961 12.837 6.59961 12.5527V3.40039C6.59961 2.62726 5.9733 2.00011 5.2002 2C4.42614 2 3.7998 2.62609 3.7998 3.39844V12.5527Z" fill="var(--fill-0, #E67E22)"/>
</svg>
