<svg width="20" height="20" viewBox="0 0 20 20" fill="none" xmlns="http://www.w3.org/2000/svg">
<path id="Vector" d="M9.99953 14.246C11.4306 14.246 12.6304 15.1801 12.9556 16.4381H19.2754C19.6755 16.4382 20 16.7448 20 17.123C20 17.5012 19.6755 17.8078 19.2754 17.8079H12.9556C12.6304 19.0659 11.4306 20 9.99953 20C8.56857 19.9998 7.36852 19.0658 7.04345 17.8079H0.724631C0.324428 17.8079 0 17.5013 0 17.123C0 16.7447 0.324428 16.4381 0.724631 16.4381H7.04345C7.36852 15.1801 8.56857 14.2461 9.99953 14.246ZM9.99953 15.6158C9.11926 15.616 8.40591 16.2909 8.40591 17.123C8.40591 17.9551 9.11926 18.63 9.99953 18.6302C10.88 18.6302 11.5941 17.9552 11.5941 17.123C11.5941 16.2908 10.88 15.6158 9.99953 15.6158ZM9.99953 0C13.6014 0 16.5212 2.75984 16.5212 6.16427C16.5212 9.56871 13.6014 12.3285 9.99953 12.3285C6.39788 12.3284 3.47785 9.56859 3.47785 6.16427C3.47785 2.75996 6.39788 0.00019203 9.99953 0ZM8.42666 6.84919C8.49145 8.01411 8.71653 9.03549 9.03335 9.78418C9.22291 10.2321 9.43054 10.5486 9.624 10.742C9.81563 10.9335 9.94263 10.9586 9.99953 10.9587C10.0562 10.9587 10.1839 10.9339 10.376 10.742C10.5694 10.5486 10.7771 10.232 10.9666 9.78418C11.2835 9.03549 11.5086 8.01408 11.5733 6.84919H8.42666ZM4.97995 6.84919C5.22123 8.4432 6.29153 9.7833 7.76525 10.4682C7.7388 10.4106 7.71286 10.3524 7.68788 10.2934C7.29385 9.36232 7.04145 8.16191 6.97552 6.84919H4.97995ZM13.0245 6.84919C12.9585 8.16191 12.7062 9.36232 12.3121 10.2934C12.2871 10.3525 12.2603 10.4105 12.2338 10.4682C13.7079 9.78339 14.7787 8.44343 15.0201 6.84919H13.0245ZM12.3121 2.03514C12.7062 2.96623 12.9585 4.16664 13.0245 5.47935H15.0201C14.7787 3.88499 13.708 2.54422 12.2338 1.85945C12.2604 1.91736 12.287 1.97576 12.3121 2.03514ZM9.99953 1.36984C9.94263 1.36995 9.81563 1.39502 9.624 1.58655C9.43054 1.77996 9.22291 2.09644 9.03335 2.54437C8.71653 3.29306 8.49145 4.31444 8.42666 5.47935H11.5733C11.5086 4.31447 11.2835 3.29306 10.9666 2.54437C10.7771 2.09651 10.5694 1.77997 10.376 1.58655C10.1839 1.3946 10.0562 1.36984 9.99953 1.36984ZM7.76525 1.85945C6.29133 2.5443 5.22125 3.88522 4.97995 5.47935H6.97552C7.04145 4.16664 7.29385 2.96623 7.68788 2.03514C7.71297 1.97587 7.73868 1.91726 7.76525 1.85945Z" fill="var(--fill-0, #CCCCCC)"/>
</svg>
