<svg preserveAspectRatio="none" width="100%" height="100%" overflow="visible" style="display: block;" viewBox="0 0 20.0033 16" fill="none" xmlns="http://www.w3.org/2000/svg">
<path id="Vector" d="M5.25151 0C3.17351 0 1.27253 1.71099 0.93953 3.84399L0.00151166 10.875C-0.0104883 10.965 0.0525304 11.039 0.0645304 11.125C0.0505304 11.252 0.00151166 11.369 0.00151166 11.5V12.5C0.00151166 14.433 1.56851 16 3.50151 16H16.5015C18.4345 16 20.0015 14.433 20.0015 12.5V11.5C20.0015 11.369 19.9535 11.252 19.9395 11.125C19.9515 11.039 20.0145 10.965 20.0015 10.875L19.0015 3.875C18.6665 1.726 16.7985 0 14.7205 0H5.25151ZM5.25151 2H14.7205C15.7895 2 16.8485 2.97501 17.0335 4.15601L17.6075 8.189C17.2615 8.075 16.8855 8 16.5015 8H3.50151C3.10751 8 2.66952 8.11101 2.37853 8.19901L2.93953 4.125C3.12053 2.966 4.18351 2 5.25151 2ZM3.50151 10H16.5015C17.3305 10 18.0015 10.672 18.0015 11.5V12.5C18.0015 13.328 17.3305 14 16.5015 14H3.50151C2.67351 14 2.00151 13.328 2.00151 12.5V11.5C2.00151 10.672 2.67351 10 3.50151 10ZM4.00151 11C3.44951 11 3.00151 11.448 3.00151 12C3.00151 12.552 3.44951 13 4.00151 13C4.55451 13 5.00151 12.552 5.00151 12C5.00151 11.448 4.55451 11 4.00151 11ZM7.00151 11C6.44951 11 6.00151 11.448 6.00151 12C6.00151 12.552 6.44951 13 7.00151 13C7.55451 13 8.00151 12.552 8.00151 12C8.00151 11.448 7.55451 11 7.00151 11Z" fill="var(--fill-0, #999999)"/>
</svg>
