<svg preserveAspectRatio="none" width="100%" height="100%" overflow="visible" style="display: block;" viewBox="0 0 16 18" fill="none" xmlns="http://www.w3.org/2000/svg">
<path id="Vector" d="M3.09674 6.94295C3.09674 6.51691 3.44336 6.17153 3.87094 6.17153C4.29852 6.17153 4.64514 6.51691 4.64514 6.94295V15.3664L6.42035 13.5975C6.7227 13.2962 7.21277 13.2962 7.51512 13.5975C7.81746 13.8988 7.81746 14.3871 7.51512 14.6884L4.41832 17.7741C4.11598 18.0753 3.6259 18.0753 3.32355 17.7741L0.226758 14.6884C-0.0755859 14.3871 -0.0755859 13.8988 0.226758 13.5975C0.529101 13.2962 1.01918 13.2962 1.32152 13.5975L3.09674 15.3664V6.94295ZM11.3549 11.0572V2.63382L9.57965 4.40267C9.27731 4.70393 8.78723 4.70393 8.48488 4.40267C8.18254 4.10141 8.18254 3.61309 8.48488 3.31183L11.5817 0.226124L11.6401 0.172888C11.9442 -0.0742866 12.393 -0.0563246 12.6764 0.226124L15.7732 3.31183C16.0756 3.61309 16.0756 4.10141 15.7732 4.40267C15.4709 4.70393 14.9808 4.70393 14.6785 4.40267L12.9033 2.63382V11.0572C12.9033 11.4833 12.5566 11.8287 12.1291 11.8287C11.7015 11.8287 11.3549 11.4833 11.3549 11.0572Z" fill="var(--fill-0, #999999)"/>
</svg>
