<svg preserveAspectRatio="none" width="100%" height="100%" overflow="visible" style="display: block;" viewBox="0 0 13.8875 16.6667" fill="none" xmlns="http://www.w3.org/2000/svg">
<g id="Vector">
<path d="M10.4157 5.55664H3.47188V4.86226C3.47167 4.09248 3.72729 3.34445 4.19856 2.73578C4.66983 2.12712 5.33002 1.69233 6.07533 1.49978C6.82065 1.30723 7.60882 1.36784 8.31593 1.67207C9.02304 1.97631 9.609 2.50692 9.98167 3.18048C10.0259 3.26022 10.0855 3.33046 10.1569 3.3872C10.2283 3.44393 10.3102 3.48604 10.3979 3.51112C10.4856 3.5362 10.5774 3.54376 10.668 3.53338C10.7586 3.52299 10.8463 3.49486 10.926 3.45059C11.0058 3.40632 11.076 3.34678 11.1327 3.27536C11.1895 3.20394 11.2316 3.12205 11.2567 3.03436C11.2817 2.94667 11.2893 2.85489 11.2789 2.76428C11.2685 2.67366 11.2404 2.58598 11.1961 2.50624C10.6742 1.56349 9.85371 0.820931 8.86374 0.395274C7.87378 -0.0303826 6.77043 -0.114998 5.72713 0.15473C4.68383 0.424457 3.75975 1.03323 3.10013 1.88536C2.44052 2.73749 2.08277 3.78466 2.08313 4.86226V5.85105C1.46469 6.12096 0.938306 6.56524 0.568347 7.12955C0.198387 7.69386 0.000887674 8.35375 0 9.02852V13.1948C0.00110257 14.1152 0.367243 14.9977 1.01811 15.6486C1.66897 16.2994 2.55142 16.6656 3.47188 16.6667H10.4157C11.3361 16.6656 12.2186 16.2994 12.8694 15.6486C13.5203 14.9977 13.8864 14.1152 13.8875 13.1948V9.02852C13.8864 8.10806 13.5203 7.22561 12.8694 6.57475C12.2186 5.92388 11.3361 5.55774 10.4157 5.55664ZM12.4988 13.1948C12.4988 13.7473 12.2793 14.2771 11.8886 14.6678C11.498 15.0584 10.9681 15.2779 10.4157 15.2779H3.47188C2.9194 15.2779 2.38955 15.0584 1.99889 14.6678C1.60823 14.2771 1.38875 13.7473 1.38875 13.1948V9.02852C1.38875 8.47604 1.60823 7.94619 1.99889 7.55552C2.38955 7.16486 2.9194 6.94539 3.47188 6.94539H10.4157C10.9681 6.94539 11.498 7.16486 11.8886 7.55552C12.2793 7.94619 12.4988 8.47604 12.4988 9.02852V13.1948Z" fill="var(--fill-0, #DDDDDD)"/>
<path d="M6.94378 9.72271C6.75962 9.72271 6.583 9.79587 6.45278 9.92609C6.32256 10.0563 6.2494 10.2329 6.2494 10.4171V11.8058C6.2494 11.99 6.32256 12.1666 6.45278 12.2968C6.583 12.4271 6.75962 12.5002 6.94378 12.5002C7.12794 12.5002 7.30456 12.4271 7.43478 12.2968C7.565 12.1666 7.63816 11.99 7.63816 11.8058V10.4171C7.63816 10.2329 7.565 10.0563 7.43478 9.92609C7.30456 9.79587 7.12794 9.72271 6.94378 9.72271Z" fill="var(--fill-0, #DDDDDD)"/>
</g>
</svg>
