<svg preserveAspectRatio="none" width="100%" height="100%" overflow="visible" style="display: block;" viewBox="0 0 13.8889 16.6667" fill="none" xmlns="http://www.w3.org/2000/svg">
<g id="Vector">
<path d="M11.8056 5.85V4.86111C11.8056 3.57186 11.2934 2.33542 10.3818 1.42379C9.47013 0.512151 8.23369 0 6.94444 0C5.6552 0 4.41875 0.512151 3.50712 1.42379C2.59548 2.33542 2.08333 3.57186 2.08333 4.86111V5.85C1.46483 6.11993 0.938398 6.56425 0.568402 7.12862C0.198407 7.69299 0.000887761 8.35294 0 9.02778V13.1944C0.00110268 14.115 0.367279 14.9975 1.01821 15.6485C1.66914 16.2994 2.55167 16.6656 3.47222 16.6667H10.4167C11.3372 16.6656 12.2198 16.2994 12.8707 15.6485C13.5216 14.9975 13.8878 14.115 13.8889 13.1944V9.02778C13.888 8.35294 13.6905 7.69299 13.3205 7.12862C12.9505 6.56425 12.4241 6.11993 11.8056 5.85ZM3.47222 4.86111C3.47222 3.94022 3.83804 3.05705 4.48921 2.40588C5.14038 1.75471 6.02355 1.38889 6.94444 1.38889C7.86533 1.38889 8.74851 1.75471 9.39968 2.40588C10.0508 3.05705 10.4167 3.94022 10.4167 4.86111V5.55556H3.47222V4.86111ZM12.5 13.1944C12.5 13.747 12.2805 14.2769 11.8898 14.6676C11.4991 15.0583 10.9692 15.2778 10.4167 15.2778H3.47222C2.91969 15.2778 2.38978 15.0583 1.99908 14.6676C1.60838 14.2769 1.38889 13.747 1.38889 13.1944V9.02778C1.38889 8.47524 1.60838 7.94534 1.99908 7.55464C2.38978 7.16394 2.91969 6.94444 3.47222 6.94444H10.4167C10.9692 6.94444 11.4991 7.16394 11.8898 7.55464C12.2805 7.94534 12.5 8.47524 12.5 9.02778V13.1944Z" fill="var(--fill-0, #CF3636)"/>
<path d="M6.94446 9.722C6.76028 9.722 6.58364 9.79517 6.45341 9.9254C6.32317 10.0556 6.25001 10.2323 6.25001 10.4164V11.8053C6.25001 11.9895 6.32317 12.1661 6.45341 12.2964C6.58364 12.4266 6.76028 12.4998 6.94446 12.4998C7.12864 12.4998 7.30527 12.4266 7.4355 12.2964C7.56574 12.1661 7.6389 11.9895 7.6389 11.8053V10.4164C7.6389 10.2323 7.56574 10.0556 7.4355 9.9254C7.30527 9.79517 7.12864 9.722 6.94446 9.722Z" fill="var(--fill-0, #CF3636)"/>
</g>
</svg>
