<svg width="15" height="20" viewBox="0 0 15 20" fill="none" xmlns="http://www.w3.org/2000/svg">
<path fill-rule="evenodd" clip-rule="evenodd" d="M3.74366 2.64847L0 5.41075L0.0363171 9.76725C0.0709604 13.9356 0.0852556 14.1587 0.367166 14.933C1.17143 17.1422 2.95201 18.9175 5.12346 19.6751C6.36495 20.1083 8.69596 20.1083 9.93745 19.6751C12.1448 18.905 13.9396 17.0927 14.7022 14.8637C14.99 14.0231 15 13.8488 15 9.70665V5.41946L11.4584 2.77799C9.51053 1.32513 7.82022 0.0802113 7.702 0.0112875C7.53084 -0.088457 6.72684 0.447198 3.74366 2.64847ZM10.9755 4.16661L13.6478 6.15019V9.8328C13.6478 13.0818 13.619 13.6085 13.4037 14.307C12.7899 16.2986 10.9779 18.0112 8.99668 18.4725C8.27175 18.6413 6.78917 18.6413 6.06424 18.4725C4.08301 18.0112 2.271 16.2986 1.65721 14.307C1.44188 13.6085 1.41316 13.0817 1.41316 9.82929V6.14316L7.52724 1.59068L7.91527 1.8868C8.12854 2.04961 9.50576 3.07553 10.9755 4.16661ZM5.0968 5.04728L2.70101 6.82746V7.39472C2.70101 7.81502 2.74274 7.93609 2.86199 7.86236C2.9506 7.80761 4.02827 7.01407 5.25688 6.09908C6.53817 5.14494 7.55415 4.47417 7.63941 4.52619C7.72119 4.57599 8.74426 5.32596 9.91298 6.19284C11.0817 7.05959 12.1104 7.81229 12.1989 7.86548C12.3177 7.93661 12.3599 7.81398 12.3599 7.39823V6.83448L10.0863 5.14728C8.83595 4.21928 7.74076 3.41664 7.65267 3.36358C7.55274 3.30324 6.59226 3.93591 5.0968 5.04728ZM2.71222 9.05201L2.70101 10.2834L4.98695 8.57903C6.24428 7.64167 7.34423 6.84671 7.43129 6.81251C7.57334 6.75685 8.25101 7.22969 11.4262 9.60054L12.3599 10.2977V9.11365L10.6535 7.83947C9.71504 7.13866 8.62616 6.32744 8.23388 6.03679L7.52067 5.50829L2.71222 9.05201ZM5.0373 9.61289L2.67294 11.3879L2.72522 12.5608C2.76618 13.4767 2.85221 13.8971 3.11776 14.4796C3.54984 15.4273 4.48379 16.3729 5.47157 16.8625C6.16868 17.2082 6.36611 17.2448 7.53046 17.2448C8.67587 17.2448 8.89841 17.2052 9.54221 16.8858C10.6216 16.3506 11.3858 15.6051 11.8672 14.6178C12.2248 13.8841 12.2925 13.5889 12.3357 12.5765L12.3862 11.3928L10.0521 9.66452C8.76834 8.71402 7.64688 7.91425 7.55982 7.8872C7.47289 7.86015 6.33765 8.63678 5.0373 9.61289ZM9.64588 10.5475L11.4856 11.913L11.4131 12.7193C11.2254 14.8053 9.59231 16.3196 7.53046 16.3196C5.46822 16.3196 3.83909 14.8084 3.64552 12.7159L3.5707 11.9064L5.53609 10.4503C6.70391 9.58493 7.5633 9.03224 7.65383 9.08803C7.73754 9.13979 8.63402 9.79652 9.64588 10.5475Z" fill="#DAE3F1"/>
</svg>
