<svg preserveAspectRatio="none" width="100%" height="100%" overflow="visible" style="display: block;" viewBox="0 0 17 20" fill="none" xmlns="http://www.w3.org/2000/svg">
<g id="Vector">
<path d="M14.45 7.02V5.83333C14.45 4.28624 13.8231 2.80251 12.7073 1.70854C11.5914 0.614582 10.078 0 8.5 0C6.92196 0 5.40856 0.614582 4.29271 1.70854C3.17687 2.80251 2.55 4.28624 2.55 5.83333V7.02C1.79296 7.34392 1.1486 7.8771 0.695724 8.55434C0.24285 9.23158 0.00108662 10.0235 0 10.8333V15.8333C0.00134968 16.938 0.44955 17.997 1.24629 18.7782C2.04302 19.5593 3.12324 19.9987 4.25 20H12.75C13.8768 19.9987 14.957 19.5593 15.7537 18.7782C16.5505 17.997 16.9987 16.938 17 15.8333V10.8333C16.9989 10.0235 16.7572 9.23158 16.3043 8.55434C15.8514 7.8771 15.207 7.34392 14.45 7.02ZM4.25 5.83333C4.25 4.72826 4.69777 3.66846 5.4948 2.88706C6.29183 2.10565 7.37283 1.66667 8.5 1.66667C9.62717 1.66667 10.7082 2.10565 11.5052 2.88706C12.3022 3.66846 12.75 4.72826 12.75 5.83333V6.66667H4.25V5.83333ZM15.3 15.8333C15.3 16.4964 15.0313 17.1323 14.5531 17.6011C14.0749 18.0699 13.4263 18.3333 12.75 18.3333H4.25C3.5737 18.3333 2.9251 18.0699 2.44688 17.6011C1.96866 17.1323 1.7 16.4964 1.7 15.8333V10.8333C1.7 10.1703 1.96866 9.53441 2.44688 9.06557C2.9251 8.59672 3.5737 8.33333 4.25 8.33333H12.75C13.4263 8.33333 14.0749 8.59672 14.5531 9.06557C15.0313 9.53441 15.3 10.1703 15.3 10.8333V15.8333Z" fill="var(--fill-0, #DDDDDD)"/>
<path d="M8.50001 11.6664C8.27458 11.6664 8.05838 11.7542 7.89897 11.9105C7.73956 12.0668 7.65001 12.2787 7.65001 12.4997V14.1664C7.65001 14.3874 7.73956 14.5994 7.89897 14.7557C8.05838 14.9119 8.27458 14.9997 8.50001 14.9997C8.72545 14.9997 8.94165 14.9119 9.10106 14.7557C9.26047 14.5994 9.35002 14.3874 9.35002 14.1664V12.4997C9.35002 12.2787 9.26047 12.0668 9.10106 11.9105C8.94165 11.7542 8.72545 11.6664 8.50001 11.6664Z" fill="var(--fill-0, #DDDDDD)"/>
</g>
</svg>
