<svg preserveAspectRatio="none" width="100%" height="100%" overflow="visible" style="display: block;" viewBox="0 0 22 22" fill="none" xmlns="http://www.w3.org/2000/svg">
<path id="Vector" d="M10.9994 0C11.3373 -1.25579e-08 11.642 0.214369 11.7697 0.54197L14.367 7.20845L21.2299 7.74191C21.5667 7.76812 21.8553 8.00562 21.9595 8.34221C22.0638 8.67885 21.9624 9.04833 21.7043 9.27668L16.4447 13.9284L18.0908 20.9205C18.1717 21.2643 18.0462 21.6248 17.7729 21.8331C17.4996 22.0414 17.1333 22.056 16.846 21.8696L10.9994 18.0722L5.15396 21.8696C4.86668 22.0561 4.50041 22.0414 4.22708 21.8331C3.95377 21.6248 3.82827 21.2643 3.90923 20.9205L5.55417 13.9284L0.295691 9.27668C0.0375721 9.04833 -0.06377 8.67885 0.0404812 8.34221C0.144742 8.0056 0.433241 7.76806 0.770149 7.74191L7.63181 7.20845L10.2303 0.54197L10.286 0.425313C10.4343 0.164708 10.7038 0.000188423 10.9994 0ZM8.97862 8.36773C8.85938 8.67388 8.58462 8.88284 8.26984 8.90727L2.92319 9.32164L7.02279 12.9477C7.26418 13.1614 7.3686 13.5 7.29308 13.8215L6.01123 19.263L10.5621 16.3077L10.6653 16.2506C10.9138 16.1361 11.203 16.1551 11.4379 16.3077L15.9876 19.263L14.7069 13.8215C14.6314 13.5 14.7357 13.1614 14.9772 12.9477L19.0756 9.32164L13.7302 8.90727C13.4154 8.88284 13.1406 8.67389 13.0214 8.36773L10.9994 3.17648L8.97862 8.36773Z" fill="var(--fill-0, #999999)"/>
</svg>
