<svg preserveAspectRatio="none" width="100%" height="100%" overflow="visible" style="display: block;" viewBox="0 0 17.0498 12.9297" fill="none" xmlns="http://www.w3.org/2000/svg">
<path id="Vector" d="M13.2803 0C15.3601 0.000148262 17.0498 1.68966 17.0498 3.76953C17.0498 5.84944 15.3601 7.53989 13.2803 7.54004H13.2002L9.7998 9.96973V10.0996C9.7998 11.6596 8.52973 12.9297 6.96973 12.9297C6.31595 12.9291 5.68219 12.7026 5.17578 12.2891C4.66946 11.8755 4.32164 11.2996 4.19043 10.6592L0.381836 9.08887C0.134344 8.21819 0 7.29964 0 6.34961C0 6.08497 0.0130206 5.82294 0.0332031 5.56348L5.37988 7.75977C5.82981 7.44981 6.37983 7.26959 6.96973 7.26953L7.12988 7.2793L9.5 3.81934V3.76953C9.50004 1.68957 11.2003 0 13.2803 0ZM7.78027 8.13965C7.26027 7.91965 6.70973 7.92937 6.21973 8.10938L7.5 8.63965C8.27999 8.96965 8.66008 9.87969 8.33008 10.6797C8.00009 11.4796 7.08021 11.8494 6.28027 11.5195L5.05957 11.0195C5.26957 11.4695 5.65039 11.8496 6.15039 12.0596C7.23032 12.5093 8.49973 11.9891 8.92969 10.9092C9.14955 10.3893 9.14955 9.80989 8.92969 9.29004C8.71972 8.76012 8.31015 8.34968 7.78027 8.13965ZM13.2803 1.25977C12.9504 1.25844 12.6234 1.32265 12.3184 1.44824C12.0132 1.57391 11.7353 1.75885 11.502 1.99219C11.2688 2.22546 11.0836 2.50263 10.958 2.80762C10.8324 3.11265 10.7682 3.43965 10.7695 3.76953C10.7695 4.43615 11.0345 5.07555 11.5049 5.54785C11.9753 6.0201 12.6137 6.28739 13.2803 6.29004C14.6701 6.28989 15.7998 5.15944 15.7998 3.76953C15.7971 3.10299 15.5308 2.46454 15.0586 1.99414C14.5864 1.52377 13.9468 1.25983 13.2803 1.25977ZM13.29 1.87988C14.33 1.8799 15.1699 2.72958 15.1699 3.76953C15.1699 4.80952 14.33 5.65916 13.29 5.65918C12.24 5.65918 11.4004 4.80953 11.4004 3.76953C11.4004 2.72957 12.2401 1.87988 13.29 1.87988Z" fill="#FFFFFF"/>
</svg>
