<svg preserveAspectRatio="none" width="100%" height="100%" overflow="visible" style="display: block;" viewBox="0 0 20 20" fill="none" xmlns="http://www.w3.org/2000/svg">
<g id="Vector">
<path d="M10 20C8.02219 20 6.08879 19.4135 4.4443 18.3147C2.79981 17.2159 1.51809 15.6541 0.761209 13.8268C0.00433289 11.9996 -0.1937 9.98891 0.192152 8.0491C0.578004 6.10929 1.53041 4.32746 2.92894 2.92894C4.32746 1.53041 6.10929 0.578004 8.0491 0.192152C9.98891 -0.1937 11.9996 0.00433289 13.8268 0.761209C15.6541 1.51809 17.2159 2.79981 18.3147 4.4443C19.4135 6.08879 20 8.02219 20 10C19.9971 12.6513 18.9426 15.1932 17.0679 17.0679C15.1932 18.9426 12.6513 19.9971 10 20ZM10 1.66667C8.35182 1.66667 6.74066 2.15541 5.37025 3.07109C3.99984 3.98677 2.93174 5.28826 2.30101 6.81097C1.67028 8.33369 1.50525 10.0092 1.82679 11.6258C2.14834 13.2423 2.94201 14.7271 4.10745 15.8926C5.27288 17.058 6.75774 17.8517 8.37425 18.1732C9.99076 18.4948 11.6663 18.3297 13.189 17.699C14.7117 17.0683 16.0132 16.0002 16.9289 14.6298C17.8446 13.2593 18.3333 11.6482 18.3333 10C18.3309 7.79061 17.4522 5.6724 15.8899 4.11013C14.3276 2.54785 12.2094 1.6691 10 1.66667Z" fill="var(--fill-0, #999999)"/>
<path d="M7.32931 12.5556C6.939 12.8001 6.42441 12.6817 6.18015 12.2913C5.93609 11.9011 6.05435 11.387 6.44433 11.1428L8.6975 9.73137C8.9894 9.54853 9.16665 9.22834 9.16665 8.88391V5.83333C9.16665 5.37309 9.53975 5 9.99999 5C10.4602 5 10.8333 5.37309 10.8333 5.83333V9.80722C10.8333 10.1517 10.6561 10.4719 10.3641 10.6547L7.32931 12.5556Z" fill="var(--fill-0, #999999)"/>
</g>
</svg>
