<svg preserveAspectRatio="none" width="100%" height="100%" overflow="visible" style="display: block;" viewBox="0 0 17 20" fill="none" xmlns="http://www.w3.org/2000/svg">
<g id="Vector">
<path d="M12.75 6.66796H4.25V5.83471C4.24974 4.91097 4.56265 4.01334 5.13954 3.28294C5.71643 2.55254 6.52458 2.0308 7.43693 1.79974C8.34928 1.56868 9.3141 1.64141 10.1797 2.00649C11.0453 2.37157 11.7626 3.0083 12.2188 3.81658C12.2729 3.91227 12.3458 3.99656 12.4333 4.06463C12.5207 4.13271 12.6209 4.18324 12.7283 4.21334C12.8356 4.24344 12.948 4.25252 13.0589 4.24006C13.1698 4.22759 13.2771 4.19384 13.3748 4.14071C13.4724 4.08759 13.5583 4.01613 13.6278 3.93043C13.6972 3.84473 13.7488 3.74646 13.7795 3.64123C13.8102 3.536 13.8195 3.42587 13.8067 3.31714C13.794 3.2084 13.7596 3.10318 13.7054 3.00749C13.0664 1.87619 12.0621 0.985118 10.8503 0.474329C9.63844 -0.0364591 8.28781 -0.137997 7.01069 0.185676C5.73357 0.509349 4.60238 1.23988 3.79493 2.26244C2.98748 3.28499 2.54956 4.54159 2.55 5.83471V7.02126C1.79296 7.34515 1.1486 7.87828 0.695724 8.55546C0.24285 9.23263 0.00108662 10.0245 0 10.8342V15.8337C0.00134968 16.9383 0.44955 17.9972 1.24629 18.7783C2.04302 19.5593 3.12324 19.9987 4.25 20H12.75C13.8768 19.9987 14.957 19.5593 15.7537 18.7783C16.5505 17.9972 16.9987 16.9383 17 15.8337V10.8342C16.9987 9.72967 16.5505 8.67073 15.7537 7.88969C14.957 7.10866 13.8768 6.66929 12.75 6.66796ZM15.3 15.8337C15.3 16.4967 15.0313 17.1325 14.5531 17.6013C14.0749 18.0701 13.4263 18.3335 12.75 18.3335H4.25C3.5737 18.3335 2.9251 18.0701 2.44688 17.6013C1.96866 17.1325 1.7 16.4967 1.7 15.8337V10.8342C1.7 10.1712 1.96866 9.53542 2.44688 9.06663C2.9251 8.59783 3.5737 8.33447 4.25 8.33447H12.75C13.4263 8.33447 14.0749 8.59783 14.5531 9.06663C15.0313 9.53542 15.3 10.1712 15.3 10.8342V15.8337Z" fill="var(--fill-0, #999999)"/>
<path d="M8.50001 11.6673C8.27458 11.6673 8.05838 11.755 7.89897 11.9113C7.73956 12.0676 7.65001 12.2795 7.65001 12.5005V14.167C7.65001 14.388 7.73956 14.5999 7.89897 14.7562C8.05838 14.9125 8.27458 15.0003 8.50001 15.0003C8.72545 15.0003 8.94165 14.9125 9.10106 14.7562C9.26047 14.5999 9.35002 14.388 9.35002 14.167V12.5005C9.35002 12.2795 9.26047 12.0676 9.10106 11.9113C8.94165 11.755 8.72545 11.6673 8.50001 11.6673Z" fill="var(--fill-0, #999999)"/>
</g>
</svg>
